<svg width="108" height="108" viewBox="0 0 108 108" fill="none" xmlns="http://www.w3.org/2000/svg">
<g clip-path="url(#clip0_1_2)">
<circle cx="54" cy="54" r="54" fill="white"/>
<g clip-path="url(#clip1_1_2)">
<path d="M81 36.9173V70.9794C81 73.8749 79.8888 76.6517 77.9109 78.6991C75.933 80.7465 73.2503 81.8967 70.4531 81.8967H37.5469C34.7497 81.8967 32.067 80.7465 30.0891 78.6991C28.1112 76.6517 27 73.8749 27 70.9794V36.9173C27 34.0219 28.1112 31.245 30.0891 29.1976C32.067 27.1502 34.7497 26 37.5469 26H70.4531C73.2503 26 75.933 27.1502 77.9109 29.1976C79.8888 31.245 81 34.0219 81 36.9173Z" fill="#6A51A1"/>
<path d="M81 36.9173V70.9793C81 73.8748 79.8888 76.6517 77.9109 78.6991C75.9329 80.7465 73.2503 81.8967 70.4531 81.8967H37.5468C35.9323 81.8979 34.3391 81.5145 32.8906 80.7762C31.4421 80.0379 30.1772 78.9644 29.1937 77.6389C33.3893 52.4941 52.4918 32.6311 76.7411 28.1528C78.0635 29.1674 79.1376 30.4888 79.8772 32.0109C80.6169 33.533 81.0014 35.2135 81 36.9173Z" fill="#614994"/>
<path d="M60.2437 53.4595C62.0662 52.4464 63.2812 50.5948 63.2812 48.0794C63.2812 44.2016 60.2437 41.7212 54.5737 41.7212H43.4995V66.176H55.2487C61.3237 66.176 64.4962 63.7305 64.4962 59.5383C64.4962 56.3592 62.775 54.298 60.2437 53.4595ZM47.8912 45.2846H54.1054C57.1429 45.2846 58.8642 46.4025 58.8642 48.669C58.8642 50.9049 57.1429 52.0228 54.1054 52.0228H47.8912V45.2846ZM54.9787 62.6126H47.8912V55.5556H54.9787C58.2862 55.5556 60.075 56.6386 60.075 59.0841C60.075 61.5296 58.2862 62.6126 54.9787 62.6126Z" fill="white"/>
</g>
</g>
<defs>
<clipPath id="clip0_1_2">
<rect width="1920" height="7242" fill="white" transform="translate(-1501 -4250)"/>
</clipPath>
<clipPath id="clip1_1_2">
<rect width="54" height="55.8967" fill="white" transform="translate(27 26)"/>
</clipPath>
</defs>
</svg>
