<svg width="108" height="108" viewBox="0 0 108 108" fill="none" xmlns="http://www.w3.org/2000/svg">
<g clip-path="url(#clip0_1_2)">
<circle cx="54" cy="54" r="54" fill="white"/>
<path fill-rule="evenodd" clip-rule="evenodd" d="M30 26L34.4493 75.8956L53.7306 81.2698L73.0115 75.8956L77.4615 26H30Z" fill="#1758A7"/>
<path fill-rule="evenodd" clip-rule="evenodd" d="M53.7303 30.0415V76.9837L53.7738 76.9958L69.3772 72.6467L72.9787 30.0415H53.7303Z" fill="#379AD6"/>
<path fill-rule="evenodd" clip-rule="evenodd" d="M53.6762 64.2198L53.6658 64.223L47.2241 62.5233L46.8337 57.6284H40.8474L41.6281 67.0784L53.7309 70.8175V64.2038L53.6762 64.2198Z" fill="#E8E8E7"/>
<path fill-rule="evenodd" clip-rule="evenodd" d="M53.7308 48.3979V54.4016H53.748L60.9026 54.4096L60.4434 62.2572L53.748 64.2097L53.7308 64.2148V70.8106L53.748 70.8159L53.7528 70.8174L65.8878 67.1486L67.4622 48.3979H53.7308Z" fill="#FBFBFA"/>
<path fill-rule="evenodd" clip-rule="evenodd" d="M40.0005 48.3979L40.4561 54.3953L40.4568 54.4046L53.7309 54.4055V48.3979H40.0005Z" fill="#E5E4E2"/>
<path fill-rule="evenodd" clip-rule="evenodd" d="M40.0014 48.3982H53.6972L53.7309 48.3831V42.3892L40.0014 48.3982Z" fill="#EEEEEE"/>
<path fill-rule="evenodd" clip-rule="evenodd" d="M54.5333 42.0972L53.7308 42.445V48.3966L67.8882 42.0972H54.5333Z" fill="white"/>
<path fill-rule="evenodd" clip-rule="evenodd" d="M38.7278 36.0898L39.4452 42.0969H53.7309V36.0898H38.7278Z" fill="#E7E7E6"/>
<path fill-rule="evenodd" clip-rule="evenodd" d="M53.7308 42.0969L68.4502 36.0898H53.7308V42.0969ZM53.7347 42.0969H67.8641L68.4503 36.0898L53.7347 42.0969Z" fill="#F8F8F7"/>
</g>
<defs>
<clipPath id="clip0_1_2">
<rect width="1920" height="7242" fill="white" transform="translate(-553 -4510)"/>
</clipPath>
</defs>
</svg>
