<svg width="108" height="108" viewBox="0 0 108 108" fill="none" xmlns="http://www.w3.org/2000/svg">
<g clip-path="url(#clip0_1_2)">
<circle cx="54" cy="54" r="54" fill="white"/>
<g clip-path="url(#clip1_1_2)">
<path d="M67.0254 28H41.9746C34.2566 28 28 34.2566 28 41.9746V67.0254C28 74.7434 34.2566 81 41.9746 81H67.0254C74.7434 81 81 74.7434 81 67.0254V41.9746C81 34.2566 74.7434 28 67.0254 28Z" fill="#470137"/>
<path d="M32.8207 66.2997V42.7002H40.4218C42.5077 42.7002 44.3823 43.1733 46.0469 44.1184C47.7114 45.0645 49.0105 46.3988 49.9453 48.1223C50.88 49.8459 51.3531 51.7775 51.3634 53.9171V55.003C51.3634 57.1644 50.9069 59.1012 49.9939 60.8144C49.0809 62.5276 47.7952 63.8671 46.1359 64.8339C44.4776 65.8007 42.6267 66.2904 40.5844 66.3007H32.8207V66.2997ZM38.5099 47.0924V61.9241H40.487C42.1185 61.9241 43.372 61.3434 44.2478 60.1819C45.1235 59.0205 45.5603 57.2938 45.5603 55.003V53.9824C45.5603 51.7029 45.1225 49.9846 44.2478 48.8283C43.372 47.6721 42.0967 47.0944 40.4229 47.0944H38.5099V47.0924ZM69.1774 59.1033L70.9444 48.7621H76.1803L72.0469 66.3007H67.427L64.5254 55.8943L61.6073 66.3007H56.9874L52.8541 48.7621H58.0899L59.8238 59.3465L62.6114 48.7621H66.4208L69.1764 59.1033H69.1774Z" fill="#FF61F6"/>
</g>
</g>
<defs>
<clipPath id="clip0_1_2">
<rect width="1920" height="7242" fill="white" transform="translate(-1027 -4250)"/>
</clipPath>
<clipPath id="clip1_1_2">
<rect width="53" height="53" fill="white" transform="translate(28 28)"/>
</clipPath>
</defs>
</svg>
