<svg width="108" height="108" viewBox="0 0 108 108" fill="none" xmlns="http://www.w3.org/2000/svg">
<g clip-path="url(#clip0_1_2)">
<circle cx="54" cy="54" r="54" fill="white"/>
<path d="M54.562 54.4998C54.562 49.6213 58.5168 45.6665 63.3953 45.6665C68.2738 45.6665 72.2286 49.6214 72.2286 54.4998C72.2286 59.3784 68.2737 63.3331 63.3953 63.3331C58.5167 63.3331 54.562 59.3783 54.562 54.4998Z" fill="#00BCFF"/>
<path d="M36.8953 72.1667C36.8953 67.2883 40.8501 63.3335 45.7286 63.3335L50.436 60.8481L54.5619 63.3335V72.1667C54.5619 77.0453 50.6071 81 45.7286 81C40.8501 81 36.8953 77.0452 36.8953 72.1667Z" fill="#00CF7F"/>
<path d="M54.562 28L49.7554 36.3506L54.562 45.6666H63.2714C68.15 45.6666 72.1047 41.7118 72.1047 36.8333C72.1047 31.9548 68.1499 28 63.2714 28H54.562Z" fill="#FF7361"/>
<path d="M36.7713 36.8333C36.7713 41.7118 40.7261 45.6666 45.6046 45.6666L50.2904 47.4765L54.5618 45.6666V28H45.6045C40.7261 28 36.7713 31.9548 36.7713 36.8333Z" fill="#FF4D12"/>
<path d="M36.8953 54.4999C36.8953 59.3785 40.8501 63.3332 45.7286 63.3332H54.5619V45.6665H45.7286C40.8501 45.6665 36.8953 49.6214 36.8953 54.4999Z" fill="#B659FF"/>
</g>
<defs>
<clipPath id="clip0_1_2">
<rect width="1920" height="7242" fill="white" transform="translate(-316 -4250)"/>
</clipPath>
</defs>
</svg>
