<svg width="108" height="108" viewBox="0 0 108 108" fill="none" xmlns="http://www.w3.org/2000/svg">
<g clip-path="url(#clip0_1_2)">
<circle cx="54" cy="54" r="54" fill="white"/>
<path d="M34.3184 76.1728L30 26H77.4758L73.1574 76.1457L53.6986 81.7265" fill="#FF4C1E"/>
<path d="M53.7379 77.4595V30.1177H73.1443L69.441 72.9217L53.7379 77.4595Z" fill="#FF651E"/>
<path d="M38.8199 36.2544H53.7379L55.9561 39.3292L53.7379 42.4041H45.3367L45.8863 48.7028H53.7379L55.9561 51.8926L53.7379 54.8389H40.4426L38.8199 36.2544ZM40.7043 57.9273H46.6715L47.0902 62.8444L53.7379 64.6866L56.2408 67.756L53.7379 71.1072L41.5418 67.5853L40.7043 57.9273Z" fill="#EBEBEB"/>
<path d="M68.6035 36.2544H53.7117V42.4041H68.0539L68.6035 36.2544ZM67.5174 48.7028H53.7117V54.8525H61.0399L60.3463 62.8444L53.7117 64.6866V71.0801L65.8816 67.5853L67.5174 48.7028Z" fill="white"/>
</g>
<defs>
<clipPath id="clip0_1_2">
<rect width="1920" height="7242" fill="white" transform="translate(-316 -4510)"/>
</clipPath>
</defs>
</svg>
