<svg width="108" height="108" viewBox="0 0 108 108" fill="none" xmlns="http://www.w3.org/2000/svg">
<g clip-path="url(#clip0_1_2)">
<circle cx="54" cy="54" r="54" fill="white"/>
<path d="M36.7396 28.6938H72.2605C77.6459 28.6938 82 33.2009 82 38.7756V74.1208C82 79.6953 77.6459 84.2025 72.2604 84.2025H36.7396C31.3541 84.2024 27 79.6954 27 74.1207V38.7756C27 33.2009 31.3541 28.6938 36.7396 28.6938Z" fill="#390000"/>
<path d="M53.6521 61.9993H45.1271L43.3855 67.5738C43.3396 67.7873 43.1563 67.9297 42.9501 67.906H38.6417C38.3896 67.906 38.3209 67.7636 38.3896 67.479L45.7687 45.489C45.8375 45.2519 45.9062 44.9909 45.9979 44.7062C46.0895 44.2081 46.1354 43.6862 46.1354 43.1643C46.1125 43.0456 46.2041 42.9271 46.3187 42.9033H46.3875H52.2541C52.4375 42.9033 52.5291 42.9745 52.552 43.0931L60.9166 67.5264C60.9854 67.7873 60.9166 67.9059 60.6875 67.9059H55.8979C55.7375 67.9295 55.577 67.811 55.5312 67.6449L53.6521 61.9993ZM46.4562 57.1838H52.2771L49.3437 47.2919L46.4562 57.1838Z" fill="#FF9A00"/>
<path d="M65.9125 46.9596C65.1562 46.9833 64.4229 46.675 63.8729 46.1293C63.3458 45.5363 63.0708 44.7535 63.0937 43.9469C63.0709 43.1404 63.3687 42.3813 63.9187 41.8357C64.4687 41.29 65.2021 41.0054 65.9584 41.0054C66.8521 41.0054 67.5396 41.29 68.0437 41.8357C68.5479 42.405 68.8229 43.1641 68.8 43.9469C68.8229 44.7534 68.5479 45.5362 67.9979 46.1293C67.4709 46.6987 66.6916 47.007 65.9125 46.9596Z" fill="#FF9A00"/>
<path d="M63.3458 67.55V49.2843C63.3458 49.0471 63.4375 48.9521 63.6437 48.9521H68.1812C68.3875 48.9521 68.4791 49.0708 68.4791 49.2843V67.55C68.4791 67.8109 68.3875 67.9295 68.1812 67.9295H63.6896C63.4603 67.9295 63.3458 67.7871 63.3458 67.55Z" fill="#FF9A00"/>
</g>
<defs>
<clipPath id="clip0_1_2">
<rect width="1920" height="7242" fill="white" transform="translate(-790 -4250)"/>
</clipPath>
</defs>
</svg>
