<svg width="108" height="108" viewBox="0 0 108 108" fill="none" xmlns="http://www.w3.org/2000/svg">
<g clip-path="url(#clip0_1_2)">
<circle cx="54" cy="54" r="54" fill="white"/>
<g clip-path="url(#clip1_1_2)">
<path d="M27 26H81V81.8967H27V26Z" fill="#FFDF00"/>
<path d="M63.2743 69.6693C64.362 71.5077 65.7772 72.8589 68.2801 72.8589C70.3826 72.8589 71.7257 71.7711 71.7257 70.2682C71.7257 68.467 70.3458 67.8291 68.0315 66.7813L66.7629 66.2178C63.1011 64.603 60.6686 62.5801 60.6686 58.3035C60.6686 54.3641 63.5684 51.3652 68.1 51.3652C71.3263 51.3652 73.6458 52.5275 75.3172 55.5708L71.3658 58.1971C70.4958 56.5823 69.5572 55.9461 68.1 55.9461C66.6138 55.9461 65.6717 56.9222 65.6717 58.1971C65.6717 59.7729 66.6146 60.4108 68.7917 61.3868L70.0603 61.9493C74.3717 63.8631 76.806 65.8141 76.806 70.2007C76.806 74.9297 73.2171 77.5205 68.3974 77.5205C63.6848 77.5205 60.6402 75.1959 59.1505 72.1491L63.2743 69.6693ZM45.3488 70.1245C46.146 71.5885 46.8712 72.8262 48.6146 72.8262C50.2817 72.8262 51.3335 72.151 51.3335 69.5257V51.6652H56.4078V69.5965C56.4078 75.0353 53.3272 77.5108 48.8306 77.5108C44.7677 77.5108 42.4149 75.3343 41.2183 72.713L45.3488 70.1245Z" fill="black"/>
</g>
</g>
<defs>
<clipPath id="clip0_1_2">
<rect width="1920" height="7242" fill="white" transform="translate(-790 -4510)"/>
</clipPath>
<clipPath id="clip1_1_2">
<rect x="27" y="26" width="54" height="55.8967" rx="7" fill="white"/>
</clipPath>
</defs>
</svg>
