<svg width="108" height="108" viewBox="0 0 108 108" fill="none" xmlns="http://www.w3.org/2000/svg">
<g clip-path="url(#clip0_1_2)">
<circle cx="54" cy="54" r="54" fill="white"/>
<mask id="mask0_1_2" style="mask-type:luminance" maskUnits="userSpaceOnUse" x="49" y="28" width="10" height="60">
<path d="M55.1382 87.6201L53.386 87.0197C53.386 87.0197 53.6095 77.8399 50.4112 77.1971C48.3022 74.6675 50.7358 -30.855 58.3975 76.8356C58.3975 76.8356 55.7752 78.1986 55.2788 80.5132C54.7825 82.8294 55.1382 87.6201 55.1382 87.6201Z" fill="white"/>
</mask>
<g mask="url(#mask0_1_2)">
<path d="M55.1382 87.6201L53.386 87.0197C53.386 87.0197 53.6095 77.8399 50.4112 77.1971C48.3022 74.6675 50.7358 -30.855 58.3975 76.8356C58.3975 76.8356 55.7752 78.1986 55.2788 80.5132C54.7825 82.8294 55.1382 87.6201 55.1382 87.6201Z" fill="url(#paint0_linear_1_2)"/>
</g>
<mask id="mask1_1_2" style="mask-type:luminance" maskUnits="userSpaceOnUse" x="53" y="20" width="16" height="59">
<path d="M56.083 78.7559C56.083 78.7559 71.3086 68.3756 67.7416 46.818C64.3064 31.156 56.196 26.0072 55.3245 24.0416C54.3651 22.6504 53.3987 20.1847 53.3987 20.1847L54.0463 63.8237C54.0463 63.8237 52.7067 77.1485 56.083 78.7559Z" fill="white"/>
</mask>
<g mask="url(#mask1_1_2)">
<path d="M56.083 78.7559C56.083 78.7559 71.3086 68.3756 67.7416 46.818C64.3064 31.156 56.196 26.0072 55.3245 24.0416C54.3651 22.6504 53.3987 20.1847 53.3987 20.1847L54.0463 63.8237C54.0463 63.8237 52.7067 77.1485 56.083 78.7559Z" fill="url(#paint1_linear_1_2)"/>
</g>
<mask id="mask2_1_2" style="mask-type:luminance" maskUnits="userSpaceOnUse" x="39" y="20" width="16" height="60">
<path d="M52.4946 79.3359C52.4946 79.3359 38.2125 69.2506 39.0341 51.456C39.8561 33.6609 49.9435 24.9115 51.9081 23.3242C53.1783 21.9228 53.2309 21.3828 53.3291 20.0001C54.2193 21.9797 54.0713 49.5677 54.1656 52.7923C54.5316 65.3447 53.494 76.9665 52.4946 79.3359Z" fill="white"/>
</mask>
<g mask="url(#mask2_1_2)">
<path d="M52.4946 79.3359C52.4946 79.3359 38.2125 69.2506 39.0341 51.456C39.8561 33.6609 49.9435 24.9115 51.9081 23.3242C53.1783 21.9228 53.2309 21.3828 53.3291 20.0001C54.2193 21.9797 54.0713 49.5677 54.1656 52.7923C54.5316 65.3447 53.494 76.9665 52.4946 79.3359Z" fill="url(#paint2_linear_1_2)"/>
</g>
</g>
<defs>
<linearGradient id="paint0_linear_1_2" x1="43.5479" y1="54.4868" x2="63.8179" y2="61.1277" gradientUnits="userSpaceOnUse">
<stop stop-color="#929669"/>
<stop offset="0.231" stop-color="#929669"/>
<stop offset="1" stop-color="#FDFCF1"/>
</linearGradient>
<linearGradient id="paint1_linear_1_2" x1="50.9268" y1="20.5952" x2="60.4585" y2="78.0295" gradientUnits="userSpaceOnUse">
<stop stop-color="#45AA3A"/>
<stop offset="1" stop-color="#3D9439"/>
</linearGradient>
<linearGradient id="paint2_linear_1_2" x1="37.5332" y1="53.2849" x2="61.5817" y2="45.5097" gradientUnits="userSpaceOnUse">
<stop stop-color="#41A83B"/>
<stop offset="1" stop-color="#5EBC44"/>
</linearGradient>
<clipPath id="clip0_1_2">
<rect width="1920" height="7242" fill="white" transform="translate(-1027 -4510)"/>
</clipPath>
</defs>
</svg>
