<svg width="108" height="108" viewBox="0 0 108 108" fill="none" xmlns="http://www.w3.org/2000/svg">
<g clip-path="url(#clip0_1_2)">
<circle cx="54" cy="54" r="54" fill="white"/>
<path d="M65.6928 32.9595C66.1632 32.9749 66.5635 33.2619 66.9625 33.4891C67.0519 33.5389 67.1412 33.5888 67.2333 33.6402C67.4676 33.7712 67.7009 33.904 67.9339 34.0375C68.073 34.1171 68.2124 34.1963 68.3518 34.2754C68.6141 34.4248 68.8757 34.5754 69.1369 34.7267C69.2174 34.773 69.2979 34.8192 69.3808 34.8668C69.4551 34.9105 69.5295 34.9543 69.6061 34.9993C69.7039 35.0564 69.7039 35.0564 69.8036 35.1146C70.0016 35.2569 70.0902 35.3386 70.2093 35.5552C70.2481 35.8157 70.2478 36.0753 70.2496 36.3383C70.251 36.4188 70.2524 36.4992 70.2539 36.582C70.2584 36.8522 70.2611 37.1225 70.2639 37.3927C70.2666 37.5862 70.2695 37.7796 70.2724 37.9731C70.2815 38.6092 70.2879 39.2454 70.2936 39.8816C70.2944 39.9628 70.2944 39.9628 70.2951 40.0457C70.3049 41.1215 70.3133 42.1974 70.3189 43.2733C70.3202 43.5098 70.3215 43.7462 70.3228 43.9827C70.3231 44.0414 70.3234 44.1002 70.3237 44.1608C70.3292 45.1118 70.3414 46.0625 70.3564 47.0134C70.3716 47.9907 70.3803 48.9679 70.3826 49.9453C70.3841 50.4937 70.3885 51.0418 70.4005 51.5901C70.4117 52.1065 70.414 52.6224 70.4104 53.1389C70.4105 53.3279 70.4136 53.5169 70.4199 53.7058C70.4567 54.8704 70.4567 54.8704 70.2093 55.3574C69.78 55.8009 69.23 56.0577 68.6739 56.3033C68.4098 56.4225 68.1694 56.5649 67.9225 56.7167C67.7689 56.806 67.6153 56.8952 67.4616 56.9843C67.2887 57.0849 67.1157 57.1854 66.9428 57.2859C66.8561 57.3363 66.7695 57.3866 66.6802 57.4384C66.3179 57.649 65.9558 57.8602 65.5938 58.0713C65.3344 58.2225 65.0748 58.3734 64.8153 58.5242C64.5425 58.6829 64.2705 58.8427 63.9999 59.0052C63.9489 59.0355 63.8979 59.0658 63.8454 59.097C63.7191 59.1723 63.5932 59.2482 63.4674 59.3243C63.2244 59.4427 63.0469 59.4979 62.7768 59.5095C62.5355 59.4231 62.5355 59.4231 62.2776 59.285C62.2298 59.2595 62.1819 59.2341 62.1325 59.2079C61.6514 58.9488 61.1827 58.6672 60.7145 58.3851C60.2597 58.1115 59.8009 57.8449 59.3422 57.5782C59.2126 57.5028 59.2126 57.5028 59.0804 57.4259C58.9019 57.322 58.7234 57.2182 58.5448 57.1144C58.2632 56.9506 57.9817 56.7866 57.7002 56.6225C57.6537 56.5954 57.6072 56.5683 57.5592 56.5403C57.3359 56.4102 57.1125 56.28 56.8892 56.1498C56.7685 56.0795 56.7685 56.0795 56.6455 56.0078C56.5707 55.964 56.496 55.9202 56.4189 55.8751C56.2922 55.8019 56.1646 55.73 56.0359 55.6604C55.6684 55.4611 55.6684 55.4611 55.5814 55.1977C55.5723 55.0827 55.5674 54.9673 55.565 54.8519C55.5634 54.7813 55.5618 54.7107 55.5602 54.6379C55.5588 54.5606 55.5575 54.4833 55.5561 54.4037C55.5545 54.3222 55.5528 54.2406 55.5511 54.1566C55.5366 53.4046 55.5282 52.6526 55.5217 51.9005C55.5172 51.3953 55.5107 50.8902 55.4995 50.385C55.4887 49.8965 55.483 49.4082 55.4808 48.9196C55.4791 48.7335 55.4756 48.5475 55.4703 48.3616C55.4317 46.9443 55.4317 46.9443 55.6796 46.5958C55.9526 46.3437 56.2643 46.2243 56.6093 46.0951C56.7702 46.0038 56.9298 45.9101 57.0871 45.8128C57.249 45.7188 57.411 45.6249 57.573 45.5312C57.7073 45.4531 57.8416 45.3751 57.9759 45.2971C58.114 45.217 58.2521 45.1369 58.3902 45.0568C58.7452 44.851 59.1 44.6449 59.4547 44.4386C59.6261 44.339 59.7975 44.2395 59.9691 44.1401C60.3867 43.8976 60.8014 43.6515 61.2117 43.3965C61.3289 43.3243 61.3289 43.3243 61.4484 43.2507C61.5943 43.1605 61.7396 43.0692 61.8841 42.9768C62.2951 42.7236 62.6791 42.5027 63.1721 42.5818C63.5058 42.7225 63.8053 42.9069 64.1111 43.1008C64.2719 43.2004 64.4331 43.2995 64.5947 43.3977C64.6652 43.4421 64.7356 43.4865 64.8081 43.5323C64.9964 43.6486 64.9964 43.6486 65.2279 43.5399C65.2282 43.4866 65.2284 43.4332 65.2287 43.3783C65.2351 42.0815 65.2424 40.7847 65.2507 39.488C65.2546 38.8609 65.2583 38.2338 65.2613 37.6067C65.2639 37.0602 65.267 36.5138 65.2708 35.9674C65.2728 35.6779 65.2746 35.3884 65.2756 35.099C65.2768 34.7762 65.2793 34.4535 65.2818 34.1307C65.282 34.0342 65.2821 33.9377 65.2823 33.8383C65.2832 33.7508 65.2841 33.6632 65.285 33.573C65.2856 33.4584 65.2856 33.4584 65.2863 33.3415C65.319 33.0539 65.4192 33.0082 65.6928 32.9595ZM62.5396 48.4107C62.5135 48.4897 62.4874 48.5688 62.4605 48.6502C62.3039 48.6766 62.1474 48.7029 61.9861 48.7301C62.0122 48.7828 62.0383 48.8355 62.0651 48.8898C61.9803 48.9046 61.8955 48.9194 61.8082 48.9347C61.3271 49.0553 60.8789 49.3097 60.4837 49.6084C60.4837 49.6874 60.4837 49.7665 60.4837 49.8479C60.4784 49.931 60.473 50.014 60.4674 50.0995C60.4498 50.374 60.437 50.6478 60.4273 50.9226C60.4221 51.0406 60.4151 51.1586 60.4062 51.2764C60.377 51.6734 60.3734 52.0181 60.4837 52.4031C60.7872 52.7064 61.1253 52.8665 61.5116 53.0418C61.6339 53.1141 61.7551 53.1879 61.8749 53.2642C61.9777 53.325 62.0807 53.3856 62.1837 53.4461C62.2623 53.4942 62.2623 53.4942 62.3425 53.5432C62.6334 53.7164 62.6334 53.7164 62.9615 53.7446C63.3626 53.6227 63.7151 53.3912 64.0759 53.1804C64.2198 53.0967 64.3646 53.0148 64.5095 52.9328C64.6012 52.8798 64.6928 52.8266 64.7844 52.7733C64.8676 52.7253 64.9508 52.6773 65.0365 52.6278C65.2321 52.5037 65.2321 52.5037 65.2931 52.3398C65.2977 52.2816 65.3023 52.2235 65.307 52.1635C65.317 52.0369 65.317 52.0369 65.3273 51.9076C65.3383 51.6411 65.3468 51.3749 65.3521 51.1082C65.355 50.9935 65.3593 50.8789 65.365 50.7644C65.419 50.0989 65.419 50.0989 65.1651 49.5156C64.9805 49.3901 64.7992 49.2987 64.5954 49.2091C64.4962 49.1493 64.3978 49.0882 64.3004 49.0254C64.2102 48.9724 64.12 48.9194 64.0271 48.8648C63.9814 48.8372 63.9358 48.8095 63.8888 48.7811C63.5966 48.6104 63.3486 48.5275 63.014 48.4905C62.9259 48.4757 62.8378 48.4609 62.7471 48.4456C62.6786 48.4341 62.6101 48.4225 62.5396 48.4107Z" fill="#323232"/>
<path d="M45.698 42.6882C45.8149 42.7552 45.8149 42.7552 45.9343 42.8236C46.0657 42.8981 46.0657 42.8981 46.1998 42.9741C46.2927 43.028 46.3856 43.0819 46.4785 43.1358C46.5752 43.1912 46.672 43.2464 46.7688 43.3016C47.3775 43.6496 47.9823 44.0044 48.5834 44.3657C48.9552 44.5885 49.3301 44.806 49.7049 45.0237C49.9725 45.1791 50.2398 45.3352 50.5071 45.4913C50.7978 45.6612 51.0893 45.8295 51.3824 45.9954C51.489 46.0569 51.5955 46.1184 51.7021 46.18C51.7908 46.2304 51.8796 46.2807 51.9711 46.3326C52.2297 46.5316 52.3002 46.6673 52.4186 46.9735C52.4519 47.2313 52.4511 47.4863 52.4493 47.746C52.4499 47.8606 52.4499 47.8606 52.4506 47.9775C52.4516 48.2292 52.4509 48.4809 52.4501 48.7327C52.4503 48.9081 52.4505 49.0835 52.4508 49.2589C52.4512 49.6261 52.4507 49.9934 52.4495 50.3607C52.4482 50.8311 52.449 51.3015 52.4504 51.7719C52.4513 52.134 52.451 52.4961 52.4504 52.8582C52.4502 53.0316 52.4504 53.2051 52.451 53.3785C52.4516 53.621 52.4506 53.8635 52.4493 54.106C52.4498 54.1775 52.4503 54.2489 52.4508 54.3225C52.4467 54.727 52.4043 55.0073 52.1814 55.3575C52.0129 55.4955 52.0129 55.4955 51.8154 55.6068C51.7412 55.6495 51.6669 55.6922 51.5904 55.7362C51.4696 55.8032 51.4696 55.8032 51.3462 55.8716C51.173 55.9705 50.9997 56.0695 50.8264 56.1685C50.7367 56.2191 50.647 56.2698 50.5545 56.322C50.1225 56.5668 49.6944 56.8185 49.2657 57.0693C49.0945 57.1689 48.9233 57.2685 48.7521 57.3681C48.3917 57.5777 48.0316 57.7878 47.6717 57.9981C47.5793 58.0521 47.487 58.106 47.3947 58.1599C47.2214 58.2611 47.0482 58.3624 46.875 58.4638C46.7173 58.5558 46.5594 58.6472 46.401 58.738C46.2465 58.8277 46.0933 58.92 45.9417 59.0146C45.2489 59.4324 45.2489 59.4324 44.8331 59.3347C44.4691 59.1907 44.142 58.9874 43.8099 58.781C43.6403 58.6783 43.4706 58.5757 43.3009 58.4732C43.2136 58.42 43.1264 58.3669 43.0365 58.3121C42.6121 58.0555 42.1831 57.8071 41.7541 57.5584C41.583 57.4588 41.4119 57.3592 41.2408 57.2596C40.9733 57.1039 40.7058 56.9484 40.4382 56.7929C40.2519 56.6845 40.0655 56.5762 39.8792 56.4678C39.705 56.3664 39.5307 56.2651 39.3564 56.1638C39.1991 56.0723 39.0419 55.9804 38.885 55.8881C38.7337 55.7996 38.5815 55.7126 38.4285 55.6271C38.3567 55.586 38.2848 55.5449 38.2108 55.5026C38.1469 55.4668 38.083 55.4311 38.0171 55.3942C37.836 55.251 37.8307 55.1827 37.7907 54.9583C37.7833 54.8423 37.7797 54.7261 37.7791 54.6098C37.7785 54.5406 37.7779 54.4715 37.7774 54.4002C37.7772 54.3249 37.7769 54.2497 37.7767 54.1722C37.7762 54.0924 37.7757 54.0127 37.7751 53.9305C37.7736 53.6667 37.7727 53.403 37.7719 53.1393C37.7716 53.0492 37.7712 52.9592 37.7709 52.8664C37.7693 52.3903 37.7681 51.9141 37.7674 51.4379C37.7665 50.9455 37.7638 50.4531 37.7606 49.9606C37.7586 49.5824 37.7579 49.2041 37.7576 48.8259C37.7572 48.6443 37.7563 48.4627 37.7549 48.2811C37.7529 48.0274 37.753 47.7738 37.7536 47.5201C37.7525 47.4449 37.7515 47.3696 37.7505 47.2921C37.7545 46.7827 37.7545 46.7827 37.9404 46.5323C38.1133 46.4102 38.2841 46.2984 38.469 46.1956C38.5402 46.1556 38.6114 46.1156 38.6848 46.0743C38.7616 46.0318 38.8384 45.9893 38.9175 45.9455C39.083 45.8524 39.2484 45.7593 39.4138 45.666C39.4988 45.6181 39.5838 45.5703 39.6714 45.521C40.0701 45.2945 40.4649 45.0613 40.8596 44.8276C41.6295 44.3723 42.4015 43.9209 43.1751 43.4721C43.6228 43.212 44.0674 42.9481 44.5074 42.6748C44.9213 42.4379 45.272 42.4975 45.698 42.6882Z" fill="#67A557"/>
<path d="M27.758 42.4876C27.9447 42.5812 28.123 42.6838 28.3024 42.7911C28.3705 42.8304 28.4386 42.8697 28.5089 42.9102C28.7308 43.0388 28.9515 43.1693 29.1721 43.3002C29.3212 43.3876 29.4703 43.4751 29.6194 43.5625C29.9333 43.7468 30.2467 43.932 30.5599 44.1177C30.9208 44.331 31.2831 44.5418 31.6465 44.7508C31.6952 44.7789 31.7439 44.8069 31.7942 44.8358C32.0302 44.9715 32.2663 45.1069 32.5026 45.242C32.9528 45.5004 33.4007 45.7624 33.8437 46.0331C33.9671 46.1082 33.9671 46.1082 34.0929 46.1849C34.6053 46.5351 34.6053 46.5351 34.6675 46.8607C34.6676 46.9396 34.6676 47.0185 34.6676 47.0998C34.6684 47.1906 34.6691 47.2814 34.6699 47.3749C34.6692 47.4742 34.6684 47.5735 34.6676 47.6757C34.6683 47.8329 34.6683 47.8329 34.6689 47.9933C34.67 48.2805 34.6691 48.5677 34.6678 48.8549C34.6667 49.1555 34.6673 49.456 34.6675 49.7565C34.6677 50.2611 34.6667 50.7656 34.6648 51.2702C34.6627 51.8538 34.6626 52.4373 34.6635 53.0209C34.6644 53.5821 34.6639 54.1433 34.6628 54.7046C34.6623 54.9435 34.6623 55.1824 34.6627 55.4214C34.6632 55.7548 34.6616 56.0882 34.6599 56.4216C34.6604 56.5707 34.6604 56.5707 34.661 56.7229C34.6602 56.8135 34.6594 56.904 34.6586 56.9973C34.6583 57.1156 34.6583 57.1156 34.658 57.2363C34.628 57.4332 34.628 57.4332 34.5223 57.5799C34.3907 57.6728 34.3907 57.6728 34.1535 57.679C33.714 57.5922 33.3443 57.3264 32.9675 57.0939C32.799 56.992 32.6305 56.8902 32.4619 56.7885C32.3759 56.7365 32.2899 56.6845 32.2013 56.6309C31.9445 56.478 31.6855 56.3301 31.4247 56.184C31.3427 56.1381 31.2607 56.0922 31.1762 56.0449C31.0198 55.9576 30.8631 55.8708 30.7061 55.7846C30.635 55.7447 30.5639 55.7049 30.4907 55.6638C30.4287 55.6295 30.3666 55.5952 30.3027 55.5599C29.994 55.3512 29.7536 55.1748 29.6762 54.7954C29.6761 54.7053 29.6761 54.6152 29.676 54.5224C29.675 54.4198 29.6739 54.3172 29.6728 54.2115C29.6736 54.1002 29.6745 53.9888 29.6753 53.8775C29.6746 53.7627 29.6738 53.6478 29.6728 53.533C29.6705 53.2312 29.6705 52.9295 29.671 52.6277C29.6716 52.1448 29.6691 51.6618 29.6661 51.1789C29.6654 51.0106 29.6658 50.8423 29.6664 50.674C29.6661 50.5714 29.6658 50.4688 29.6655 50.3631C29.6656 50.273 29.6658 50.1829 29.6659 50.09C29.6416 49.7851 29.5883 49.5419 29.3618 49.3299C29.168 49.2075 28.9733 49.0873 28.7768 48.9694C28.704 48.9234 28.704 48.9234 28.6298 48.8766C28.4674 48.7742 28.3036 48.6744 28.1393 48.5751C28.0871 48.542 28.0349 48.509 27.9811 48.4749C27.5782 48.2381 27.3341 48.2239 26.8791 48.3306C26.7324 48.4321 26.7324 48.4321 26.6419 48.5701C26.4608 48.7768 26.3495 48.8236 26.0884 48.8895C26.0525 48.929 26.0167 48.9686 25.9797 49.0093C25.8512 49.1291 25.8512 49.1291 25.6189 49.164C25.3289 49.2178 25.2386 49.2952 25.0605 49.5283C24.9698 49.7978 24.9706 50.0564 24.969 50.3394C24.9678 50.4885 24.9678 50.4885 24.9665 50.6406C24.9661 50.7199 24.9661 50.7199 24.9657 50.8009C24.9648 50.967 24.9632 51.1332 24.9615 51.2994C24.9566 51.7717 24.9523 52.244 24.9497 52.7163C24.948 53.0056 24.9453 53.2948 24.9417 53.5841C24.9406 53.6941 24.9399 53.804 24.9397 53.914C24.9393 54.0681 24.9373 54.2221 24.9353 54.3761C24.9347 54.4636 24.934 54.5511 24.9334 54.6413C24.8877 54.9906 24.7612 55.2023 24.4866 55.4168C24.3744 55.4836 24.3744 55.4836 24.2599 55.5518C24.217 55.5776 24.1741 55.6034 24.1299 55.6299C23.4725 56.0206 22.8033 56.3915 22.1362 56.7648C21.8556 56.9223 21.5776 57.0822 21.3035 57.2508C21.2532 57.2814 21.2029 57.312 21.151 57.3436C21.0242 57.4214 20.8983 57.5007 20.7725 57.5801C20.5038 57.6938 20.3555 57.6773 20.0791 57.5929C19.9773 57.3873 19.9863 57.2345 19.9815 57.0041C19.9794 56.913 19.9774 56.8219 19.9753 56.728C19.9735 56.6276 19.9716 56.5271 19.9697 56.4236C19.9676 56.3171 19.9654 56.2106 19.9632 56.1041C19.9437 55.1304 19.9327 54.1565 19.9239 53.1826C19.9179 52.528 19.9093 51.8737 19.8943 51.2192C19.8812 50.6481 19.8729 50.077 19.8704 49.5057C19.8688 49.2034 19.865 48.9016 19.8555 48.5995C19.8001 46.7656 19.8001 46.7656 20.1303 46.3171C20.4432 46.0395 20.7868 45.8853 21.1793 45.7548C21.4255 45.6664 21.6311 45.5364 21.8529 45.3977C22.0111 45.3056 22.1694 45.2136 22.3277 45.1217C22.5047 45.0187 22.6818 44.9156 22.8589 44.8126C22.9481 44.7607 23.0373 44.7089 23.1292 44.6554C23.4865 44.4476 23.8438 44.2395 24.201 44.0313C24.3741 43.9306 24.5473 43.83 24.7205 43.7296C25.1153 43.5006 25.5081 43.2694 25.8966 43.0297C25.9645 42.9884 26.0324 42.947 26.1023 42.9044C26.2266 42.8285 26.3503 42.7515 26.4731 42.6731C26.9081 42.4093 27.2694 42.2955 27.758 42.4876Z" fill="#323232"/>
<path d="M81.0418 42.5019C81.3964 42.6643 81.7271 42.8629 82.0599 43.0659C82.158 43.1243 82.2562 43.1826 82.3544 43.2408C82.5566 43.3607 82.7583 43.4812 82.9597 43.6023C83.3208 43.819 83.685 44.0301 84.0493 44.2411C84.8178 44.6863 85.5837 45.136 86.3494 45.5861C86.4267 45.6314 86.504 45.6768 86.5836 45.7235C86.7926 45.8466 87.0011 45.9705 87.2093 46.0951C87.2714 46.132 87.3336 46.1689 87.3976 46.207C87.4543 46.2415 87.511 46.276 87.5694 46.3116C87.6185 46.3412 87.6676 46.3709 87.7182 46.4015C87.8418 46.4943 87.8418 46.4943 88 46.7339C88.0154 46.9331 88.0221 47.1232 88.021 47.3224C88.0211 47.3798 88.0213 47.4372 88.0214 47.4963C88.0215 47.6176 88.0213 47.7389 88.0206 47.8602C88.0197 48.0454 88.0206 48.2306 88.0216 48.4158C88.0215 48.5338 88.0213 48.6517 88.021 48.7697C88.0213 48.8249 88.0216 48.8802 88.0219 48.9371C88.0192 49.2249 88.009 49.4489 87.8418 49.6882C87.6602 49.7734 87.6602 49.7734 87.4465 49.8479C87.3064 49.923 87.168 50.0013 87.0314 50.0825C86.9625 50.1227 86.8936 50.163 86.8226 50.2045C86.633 50.3189 86.633 50.3189 86.5767 50.5666C86.493 50.5846 86.4094 50.6026 86.3231 50.6212C85.7816 50.7391 85.3269 51.0788 84.8619 51.37C84.7182 51.4597 84.5743 51.5491 84.43 51.6377C84.2997 51.7179 84.1699 51.7989 84.0401 51.88C83.8179 51.9992 83.665 52.0738 83.4139 52.0837C83.2337 51.998 83.2337 51.998 83.0976 51.8441C83.057 51.6314 83.057 51.6314 83.055 51.3778C83.0532 51.2864 83.0514 51.1949 83.0495 51.1007C83.0491 51.0051 83.0486 50.9096 83.0482 50.8111C83.0462 50.6224 83.0436 50.4337 83.0402 50.245C83.0397 50.1612 83.0393 50.0774 83.0388 49.9911C83.0178 49.7595 82.9921 49.6381 82.8604 49.4487C82.5901 49.2388 82.2911 49.0759 81.9956 48.9047C81.9169 48.856 81.8381 48.8073 81.757 48.7571C81.2764 48.4777 80.9248 48.3439 80.3703 48.4361C80.0741 48.5174 79.8281 48.6353 79.5692 48.7999C79.5209 48.828 79.4727 48.8561 79.4231 48.8851C79.1292 49.0612 79.1292 49.0612 78.986 49.3689C78.911 49.3754 78.836 49.382 78.7587 49.3888C78.5109 49.4202 78.5109 49.4202 78.4196 49.5774C78.282 49.974 78.3082 50.4068 78.3024 50.8234C78.3002 50.9381 78.2964 51.0527 78.2911 51.1672C78.2411 51.8262 78.2411 51.8262 78.4836 52.4099C78.671 52.5392 78.8575 52.63 79.0651 52.7225C79.2107 52.8054 79.3558 52.8895 79.5003 52.9745C79.6598 53.0637 79.8195 53.1527 79.9793 53.2415C80.7367 53.6658 81.4875 54.0996 82.234 54.5429C82.6359 54.781 83.0392 55.0158 83.446 55.2452C83.5285 55.2917 83.6109 55.3382 83.6959 55.3861C83.8525 55.4742 84.0093 55.5618 84.1664 55.6489C84.5548 55.8674 84.9163 56.0772 85.2325 56.3955C85.2622 56.6999 85.2622 56.6999 85.2325 56.9544C85.1851 56.9769 85.1377 56.9995 85.0889 57.0227C84.5144 57.3041 83.9592 57.6144 83.404 57.9325C83.3256 57.9773 83.2471 58.0221 83.1663 58.0682C82.7942 58.2809 82.4236 58.4956 82.0562 58.7164C81.9931 58.7535 81.93 58.7907 81.865 58.829C81.7486 58.8977 81.6329 58.9675 81.5181 59.0388C81.1239 59.2689 80.7831 59.3693 80.3302 59.27C80.025 59.1374 79.7508 58.9649 79.4703 58.7859C79.3018 58.6824 79.1332 58.5792 78.9644 58.4762C78.8772 58.4226 78.79 58.3689 78.7001 58.3137C78.2613 58.0488 77.8132 57.8015 77.3651 57.5533C76.442 57.0391 75.5274 56.5111 74.6215 55.9666C74.4618 55.8728 74.3001 55.7823 74.1374 55.694C74.0079 55.6225 74.0079 55.6225 73.8758 55.5496C73.7569 55.4857 73.7569 55.4857 73.6357 55.4206C73.4511 55.2776 73.4511 55.2776 73.4009 55.1168C73.3605 54.7823 73.3597 54.4516 73.3593 54.115C73.3589 54.0386 73.3585 53.9622 73.3581 53.8835C73.357 53.6313 73.3564 53.3792 73.356 53.127C73.3556 52.9515 73.3551 52.776 73.3546 52.6005C73.3538 52.2327 73.3533 51.865 73.3531 51.4972C73.3526 51.0262 73.3507 50.5551 73.3485 50.0841C73.347 49.7217 73.3466 49.3592 73.3465 48.9968C73.3462 48.8232 73.3456 48.6495 73.3446 48.4758C73.3432 48.2329 73.3434 47.99 73.3439 47.7471C73.3432 47.6756 73.3424 47.604 73.3417 47.5302C73.3444 47.125 73.3856 46.8452 73.6093 46.4943C73.7778 46.3563 73.7778 46.3563 73.9753 46.2451C74.0866 46.1811 74.0866 46.1811 74.2003 46.1157C74.2808 46.071 74.3614 46.0263 74.4445 45.9803C74.6177 45.8813 74.791 45.7824 74.9643 45.6834C75.054 45.6327 75.1437 45.5821 75.2362 45.5299C75.6682 45.2851 76.0963 45.0334 76.525 44.7826C76.6961 44.6829 76.8672 44.5833 77.0383 44.4838C77.1667 44.4091 77.1667 44.4091 77.2977 44.3329C77.4787 44.2276 77.6598 44.1223 77.8408 44.0171C78.0272 43.9088 78.2135 43.8004 78.3998 43.692C78.5741 43.5906 78.7483 43.4893 78.9227 43.3881C79.0023 43.3418 79.0819 43.2954 79.1639 43.2477C79.2406 43.2034 79.3172 43.1592 79.3962 43.1135C79.5433 43.0259 79.6883 42.9347 79.8311 42.8401C80.2231 42.5823 80.5643 42.3622 81.0418 42.5019ZM80.4883 48.251C80.4883 48.2773 80.4883 48.3037 80.4883 48.3308C80.6188 48.3308 80.7493 48.3308 80.8837 48.3308C80.8837 48.3045 80.8837 48.2781 80.8837 48.251C80.7532 48.251 80.6228 48.251 80.4883 48.251Z" fill="#323232"/>
<path d="M54.6325 58.2319C54.6325 58.2846 54.6325 58.3373 54.6325 58.3916C54.8066 58.4973 54.9813 58.6019 55.1563 58.706C55.2052 58.7358 55.254 58.7656 55.3043 58.7963C55.6078 58.9753 55.8575 59.0753 56.2139 59.1102C56.253 59.2288 56.253 59.2288 56.293 59.3498C56.4958 59.5004 56.4958 59.5004 56.7427 59.6392C56.8245 59.688 56.9064 59.7368 56.9907 59.7871C57.2393 59.9075 57.4437 59.958 57.7162 59.9886C57.7423 60.0676 57.7684 60.1467 57.7953 60.2281C57.9258 60.2545 58.0562 60.2808 58.1906 60.308C58.1906 60.3607 58.1906 60.4133 58.1906 60.4676C58.3648 60.5734 58.5394 60.678 58.7145 60.782C58.7633 60.8118 58.8121 60.8416 58.8624 60.8723C59.1659 61.0514 59.4156 61.1514 59.772 61.1863C59.7981 61.2653 59.8242 61.3444 59.8511 61.4258C60.0225 61.5419 60.1911 61.6476 60.37 61.7502C60.5441 61.8505 60.7111 61.9535 60.879 62.0646C60.879 62.1173 60.879 62.17 60.879 62.2243C60.9312 62.277 60.9834 62.3297 61.0372 62.384C61.1313 62.7805 61.1284 63.1752 61.129 63.5804C61.1294 63.651 61.1298 63.7215 61.1302 63.7942C61.1313 64.0267 61.1319 64.2591 61.1323 64.4915C61.1327 64.6538 61.1332 64.8161 61.1337 64.9784C61.1345 65.3184 61.1349 65.6583 61.1352 65.9983C61.1357 66.4327 61.1376 66.8671 61.1398 67.3015C61.1413 67.6367 61.1417 67.9718 61.1418 68.307C61.1421 68.4671 61.1427 68.6272 61.1437 68.7873C61.1451 69.0118 61.1449 69.2363 61.1444 69.4608C61.1451 69.5261 61.1459 69.5915 61.1466 69.6588C61.1432 70.1472 61.086 70.68 60.7634 71.0661C60.3672 71.4417 59.8619 71.6939 59.3915 71.9608C59.2537 72.04 59.1158 72.1192 58.978 72.1985C58.8357 72.2803 58.6933 72.3618 58.5509 72.4432C58.1979 72.6454 57.8465 72.8503 57.4953 73.0555C57.3262 73.1542 57.1568 73.2524 56.9873 73.3503C56.5893 73.5804 56.1937 73.813 55.8042 74.0576C55.6675 74.1432 55.5302 74.2279 55.3926 74.3122C55.2211 74.4178 55.0507 74.5253 54.8818 74.635C54.2762 75.0038 53.754 75.1447 53.0511 75C52.6731 74.8592 52.3322 74.6535 51.9923 74.4376C51.8384 74.34 51.6826 74.2464 51.5261 74.1531C50.7863 73.7018 50.7863 73.7018 50.6793 73.4773C50.679 73.3232 50.679 73.3232 50.8372 73.0836C50.991 73.0428 50.991 73.0428 51.1633 73.0287C51.2644 73.0205 51.3655 73.0123 51.4697 73.0038C51.4697 72.9511 51.4697 72.8984 51.4697 72.8441C51.548 72.7914 51.6263 72.7387 51.7069 72.6844C51.7852 72.7107 51.8635 72.7371 51.9441 72.7642C52.0273 72.779 52.0273 72.779 52.1122 72.7942C52.1611 72.8106 52.21 72.8271 52.2604 72.8441C52.2865 72.9231 52.3126 73.0022 52.3395 73.0836C52.4324 73.0984 52.4324 73.0984 52.5273 73.1136C52.7348 73.1635 52.7348 73.1635 52.893 73.3232C53.1122 73.4779 53.1122 73.4779 53.2883 73.5627C53.3405 73.5891 53.3927 73.6154 53.4465 73.6426C53.6038 73.6348 53.6038 73.6348 53.7726 73.6076C53.8737 73.5928 53.9748 73.578 54.079 73.5627C54.079 73.51 54.079 73.4573 54.079 73.403C54.141 73.3783 54.203 73.3536 54.2668 73.3282C54.5465 73.2299 54.5465 73.2299 54.7116 73.0038C54.9537 72.9539 54.9537 72.9539 55.186 72.9239C55.2121 72.8449 55.2382 72.7658 55.2651 72.6844C55.4216 72.658 55.5782 72.6317 55.7395 72.6045C55.7656 72.5255 55.7917 72.4464 55.8186 72.365C55.9236 72.3367 56.0291 72.3103 56.1348 72.2851C56.1935 72.2259 56.1935 72.2259 56.2534 72.1654C56.3946 72.0228 56.4978 72.0106 56.6883 71.9657C56.7144 71.913 56.7405 71.8603 56.7674 71.8061C57.0095 71.7561 57.0095 71.7561 57.2418 71.7262C57.2679 71.6472 57.294 71.5681 57.3209 71.4867C57.4774 71.4603 57.634 71.434 57.7953 71.4068C57.8214 71.3278 57.8475 71.2487 57.8744 71.1673C57.9794 71.139 58.0849 71.1126 58.1906 71.0874C58.2298 71.0479 58.2689 71.0084 58.3093 70.9676C58.4504 70.8251 58.5536 70.8129 58.7441 70.768C58.7702 70.7153 58.7963 70.6626 58.8232 70.6083C59.0654 70.5584 59.0654 70.5584 59.2976 70.5285C59.3237 70.4494 59.3498 70.3704 59.3767 70.2889C59.4819 70.2615 59.5874 70.2349 59.693 70.2091C59.8917 69.908 59.8819 69.6597 59.8904 69.31C59.8937 69.2091 59.8937 69.2091 59.897 69.1061C59.9158 68.4852 59.926 67.8639 59.9337 67.2428C59.939 66.8257 59.9468 66.409 59.9612 65.9921C59.9751 65.5885 59.9823 65.1852 59.9848 64.7813C59.9869 64.628 59.9913 64.4746 59.9981 64.3213C60.0341 63.615 60.0341 63.615 59.8511 62.9429C59.5275 62.5927 59.1026 62.4013 58.6718 62.2175C58.4347 62.1125 58.2197 61.9817 57.9982 61.8466C57.84 61.7545 57.6818 61.6625 57.5235 61.5705C57.3474 61.4681 57.1714 61.3657 56.9953 61.2633C56.9063 61.2115 56.8172 61.1597 56.7255 61.1064C56.4459 60.9437 56.1665 60.7807 55.8871 60.6177C55.7944 60.5636 55.7017 60.5095 55.609 60.4554C55.4341 60.3533 55.2592 60.2513 55.0844 60.1491C54.9272 60.0574 54.7696 59.9662 54.6118 59.8756C54.4712 59.7934 54.3322 59.7085 54.1952 59.6206C53.8501 59.3976 53.8501 59.3976 53.4545 59.3741C53.0886 59.576 52.7271 59.7826 52.3691 59.9985C52.1988 60.1001 52.0284 60.2016 51.858 60.303C51.7688 60.3561 51.6796 60.4092 51.5877 60.4639C51.1242 60.739 50.6569 61.0073 50.1898 61.2761C50.0966 61.3298 50.0035 61.3834 49.9103 61.4371C49.7279 61.5421 49.5454 61.6472 49.363 61.7522C48.9515 61.989 48.5402 62.2265 48.129 62.4638C47.9935 62.542 47.858 62.6202 47.7226 62.6984C47.6671 62.7304 47.6116 62.7624 47.5545 62.7954C47.5157 62.8177 47.477 62.8401 47.4372 62.8631C47.4633 62.9158 47.4893 62.9685 47.5162 63.0228C47.464 63.0228 47.4119 63.0228 47.3581 63.0228C47.3629 63.9348 47.369 64.8468 47.3767 65.7588C47.3803 66.1823 47.3834 66.6058 47.3855 67.0292C47.3875 67.4377 47.3907 67.8462 47.3947 68.2547C47.396 68.4107 47.3969 68.5667 47.3974 68.7228C47.3982 68.9409 47.4004 69.159 47.403 69.3772C47.4029 69.442 47.4027 69.5069 47.4026 69.5737C47.4054 69.9115 47.4054 69.9115 47.5474 70.2087C47.6745 70.2986 47.6745 70.2986 47.8424 70.3289C47.8913 70.342 47.9402 70.3552 47.9906 70.3688C48.0167 70.4478 48.0428 70.5269 48.0697 70.6083C48.3474 70.7065 48.3474 70.7065 48.6232 70.768C48.6232 70.8207 48.6232 70.8734 48.6232 70.9277C48.7284 70.9425 48.7284 70.9425 48.8357 70.9577C49.0976 71.0076 49.0976 71.0076 49.2805 71.0924C49.5876 71.2006 49.8825 71.18 50.2046 71.1673C50.4207 70.7454 50.4544 70.395 50.4568 69.9253C50.4574 69.8555 50.4581 69.7858 50.4588 69.7139C50.4602 69.5624 50.4614 69.4109 50.4624 69.2595C50.4641 69.0199 50.4662 68.7803 50.4685 68.5407C50.4732 68.0322 50.4773 67.5237 50.4813 67.0152C50.486 66.426 50.4909 65.8368 50.4965 65.2477C50.4986 65.0113 50.5003 64.775 50.5019 64.5387C50.5032 64.3942 50.5045 64.2496 50.5059 64.1051C50.5062 64.0391 50.5066 63.9732 50.5069 63.9052C50.5098 63.6443 50.5177 63.4317 50.6 63.1825C50.9392 63.1825 51.2784 63.1825 51.6279 63.1825C51.7338 63.5033 51.7199 63.8129 51.7209 64.1475C51.7214 64.2218 51.722 64.2961 51.7225 64.3727C51.7241 64.619 51.725 64.8653 51.7258 65.1116C51.7261 65.1958 51.7264 65.2801 51.7267 65.3669C51.7284 65.813 51.7295 66.2592 51.7303 66.7054C51.7311 67.1651 51.7339 67.6248 51.737 68.0845C51.7391 68.4389 51.7397 68.7933 51.74 69.1476C51.7404 69.317 51.7413 69.4864 51.7428 69.6558C51.7447 69.8937 51.7446 70.1315 51.7441 70.3694C51.7451 70.4386 51.7461 70.5078 51.7472 70.5791C51.7425 71.134 51.6302 71.7002 51.2499 72.1217C50.7385 72.5861 50.2558 72.6974 49.572 72.6844C48.8506 72.5891 48.2275 72.2108 47.6002 71.8609C47.5215 71.8174 47.4428 71.7739 47.3617 71.7291C46.8594 71.4391 46.4383 71.1461 46.172 70.6083C46.1645 70.4988 46.1617 70.3889 46.1615 70.279C46.1611 70.2101 46.1608 70.1411 46.1604 70.0701C46.1605 69.9943 46.1605 69.9184 46.1606 69.8403C46.1603 69.7606 46.16 69.6808 46.1598 69.5987C46.159 69.3341 46.1588 69.0695 46.1588 68.8049C46.1585 68.6215 46.1582 68.4381 46.158 68.2547C46.1575 67.8698 46.1573 67.4849 46.1574 67.1C46.1574 66.6063 46.1563 66.1126 46.155 65.6189C46.1541 65.24 46.1539 64.861 46.154 64.4821C46.1539 64.3001 46.1535 64.118 46.1529 63.936C46.1521 63.6816 46.1524 63.4271 46.1528 63.1727C46.1524 63.0972 46.1519 63.0217 46.1515 62.9439C46.1518 62.8745 46.1522 62.8051 46.1525 62.7336C46.1525 62.6734 46.1524 62.6133 46.1524 62.5513C46.1755 62.3544 46.2246 62.2316 46.3302 62.0646C46.5214 61.9348 46.708 61.8183 46.9084 61.7053C47.5159 61.3638 47.5159 61.3638 48.0252 60.8918C48.1488 60.787 48.1488 60.787 48.3697 60.7535C48.6285 60.7062 48.7833 60.6358 49.0068 60.4998C49.0796 60.4561 49.1524 60.4125 49.2274 60.3675C49.3052 60.3198 49.3831 60.2722 49.4633 60.2231C49.6321 60.1217 49.801 60.0205 49.9699 59.9193C50.1033 59.8391 50.1033 59.8391 50.2395 59.7572C50.6803 59.4933 51.1253 59.2367 51.5703 58.9801C51.7144 58.8971 51.8582 58.8138 52.0021 58.7305C52.0908 58.6793 52.1795 58.6281 52.2709 58.5753C52.3491 58.5302 52.4273 58.485 52.5079 58.4385C53.2431 58.028 53.8307 57.944 54.6325 58.2319ZM49.493 71.327C49.493 71.3533 49.493 71.3797 49.493 71.4068C49.6234 71.4068 49.7539 71.4068 49.8883 71.4068C49.8883 71.3805 49.8883 71.3541 49.8883 71.327C49.7579 71.327 49.6274 71.327 49.493 71.327Z" fill="#689E63"/>
<path d="M55.3145 62.9976C55.3924 62.9974 55.4703 62.9971 55.5505 62.9969C56.0089 63.0003 56.4071 63.05 56.8465 63.1823C56.8465 63.235 56.8465 63.2877 56.8465 63.342C56.947 63.3803 57.0475 63.4185 57.148 63.4568C57.2039 63.4781 57.2599 63.4994 57.3175 63.5213C57.4496 63.5705 57.5828 63.6164 57.7163 63.6614C57.7554 63.7799 57.7554 63.7799 57.7954 63.9009C57.8475 63.9009 57.8997 63.9009 57.9535 63.9009C58.2229 64.4817 58.3736 64.9263 58.3488 65.5777C58.2698 65.6576 58.2698 65.6576 58.0372 65.6654C57.9427 65.6644 57.8482 65.6635 57.7509 65.6626C57.6088 65.6615 57.6088 65.6615 57.4639 65.6604C57.3907 65.6595 57.3174 65.6585 57.2419 65.6576C57.1946 65.5736 57.1473 65.4896 57.0985 65.4031C57.0689 65.3521 57.0392 65.3012 57.0087 65.2487C56.9256 65.0986 56.9256 65.0986 56.8366 64.8791C56.5863 64.5758 56.2741 64.5222 55.8977 64.4599C55.1738 64.402 54.528 64.4574 53.8419 64.6994C53.8158 64.9102 53.7897 65.121 53.7628 65.3382C54.6098 65.5567 55.4557 65.7259 56.3214 65.8515C56.9913 65.9551 57.7876 66.0963 58.2698 66.6157C58.3241 66.7854 58.3241 66.7854 58.3488 66.9351C58.401 66.9878 58.4532 67.0405 58.507 67.0948C58.6765 67.5809 58.6815 68.2808 58.4971 68.7617C58.0726 69.4761 57.5896 69.8102 56.8002 70.0586C56.3774 70.1596 55.9546 70.1564 55.5221 70.154C55.4377 70.1536 55.3533 70.1531 55.2663 70.1526C54.3515 70.1384 53.5439 70.0085 52.814 69.4104C52.3628 68.9341 52.2121 68.3838 52.1814 67.7336C52.2075 67.6282 52.2336 67.5228 52.2605 67.4142C52.6258 67.4142 52.9911 67.4142 53.3674 67.4142C53.3886 67.4966 53.4098 67.5789 53.4317 67.6638C53.5549 68.0937 53.6849 68.4553 54.0791 68.6918C54.303 68.726 54.303 68.726 54.5492 68.718C54.6409 68.7176 54.7326 68.7172 54.8271 68.7167C54.9228 68.7151 55.0184 68.7135 55.1169 68.7118C55.2106 68.7113 55.3044 68.7109 55.401 68.7105C56.3524 68.7721 56.3524 68.7721 57.1727 68.4423C57.2548 68.1696 57.2584 67.9372 57.2419 67.6538C56.5179 67.3971 55.7745 67.3006 55.0182 67.1965C53.2718 66.9536 53.2718 66.9536 52.7349 66.2964C52.6664 66.2148 52.6664 66.2148 52.5965 66.1317C52.3425 65.734 52.3834 65.2344 52.4186 64.7792C52.4947 64.4408 52.568 64.1493 52.814 63.9009C53.0197 63.7756 53.2282 63.6562 53.4372 63.5366C53.4925 63.4987 53.5477 63.4609 53.6047 63.4218C53.6047 63.3691 53.6047 63.3164 53.6047 63.2621C54.1845 63.0497 54.7001 62.9874 55.3145 62.9976ZM54.4744 63.1024C54.4744 63.1288 54.4744 63.1551 54.4744 63.1823C55.0224 63.1823 55.5703 63.1823 56.1349 63.1823C56.1349 63.1559 56.1349 63.1296 56.1349 63.1024C55.5869 63.1024 55.039 63.1024 54.4744 63.1024ZM54.0791 63.1823C54.0791 63.2086 54.0791 63.235 54.0791 63.2621C54.2095 63.2621 54.34 63.2621 54.4744 63.2621C54.4744 63.2358 54.4744 63.2094 54.4744 63.1823C54.344 63.1823 54.2135 63.1823 54.0791 63.1823ZM56.1349 63.1823C56.1349 63.2086 56.1349 63.235 56.1349 63.2621C56.2654 63.2621 56.3958 63.2621 56.5302 63.2621C56.5302 63.2358 56.5302 63.2094 56.5302 63.1823C56.3998 63.1823 56.2693 63.1823 56.1349 63.1823ZM54.2372 65.6576C54.5535 65.7374 54.5535 65.7374 54.5535 65.7374L54.2372 65.6576ZM54.6326 65.7374C54.6326 65.7638 54.6326 65.7901 54.6326 65.8173C54.763 65.8173 54.8935 65.8173 55.0279 65.8173C55.0279 65.7909 55.0279 65.7646 55.0279 65.7374C54.8974 65.7374 54.767 65.7374 54.6326 65.7374ZM55.107 65.8173C55.107 65.8436 55.107 65.87 55.107 65.8971C55.2635 65.8971 55.4201 65.8971 55.5814 65.8971C55.5814 65.8708 55.5814 65.8444 55.5814 65.8173C55.4248 65.8173 55.2683 65.8173 55.107 65.8173ZM55.6605 65.8971C55.6605 65.9235 55.6605 65.9498 55.6605 65.977C55.817 65.977 55.9736 65.977 56.1349 65.977C56.1349 65.9506 56.1349 65.9243 56.1349 65.8971C55.9783 65.8971 55.8218 65.8971 55.6605 65.8971ZM56.1349 65.977C56.1349 66.0033 56.1349 66.0297 56.1349 66.0568C56.2914 66.0568 56.448 66.0568 56.6093 66.0568C56.6093 66.0305 56.6093 66.0041 56.6093 65.977C56.4527 65.977 56.2962 65.977 56.1349 65.977ZM56.6093 66.0568C56.9256 66.1367 56.9256 66.1367 56.9256 66.1367L56.6093 66.0568ZM54.3163 68.7716C54.6326 68.8515 54.6326 68.8515 54.6326 68.8515L54.3163 68.7716ZM56.293 68.7716C56.6093 68.8515 56.6093 68.8515 56.6093 68.8515L56.293 68.7716ZM54.7116 68.8515C54.7116 68.8778 54.7116 68.9042 54.7116 68.9313C55.2074 68.9313 55.7032 68.9313 56.214 68.9313C56.214 68.905 56.214 68.8786 56.214 68.8515C55.7182 68.8515 55.2224 68.8515 54.7116 68.8515Z" fill="#679E63"/>
<path d="M40.4791 50.8062C40.5313 50.8062 40.5835 50.8062 40.6373 50.8062C41.3153 52.0351 41.99 53.2656 42.6553 54.5017C42.8619 54.8853 43.0691 55.2686 43.2762 55.6519C43.351 55.7903 43.4257 55.9287 43.5004 56.0671C43.5364 56.1335 43.5723 56.2 43.6093 56.2685C43.6876 56.4135 43.7657 56.5587 43.8438 56.7039C44.0543 57.0954 44.2673 57.4843 44.4919 57.8677C44.907 58.5768 44.907 58.5768 44.907 58.8708C44.9592 58.8708 45.0114 58.8708 45.0652 58.8708C45.1434 59.0289 45.2217 59.187 45.3024 59.3499C44.7034 59.3285 44.3135 59.0939 43.8099 58.781C43.6403 58.6783 43.4706 58.5757 43.3009 58.4731C43.2137 58.42 43.1264 58.3668 43.0365 58.3121C42.6121 58.0554 42.1831 57.807 41.7541 57.5583C41.5832 57.4588 41.4123 57.3593 41.2414 57.2598C40.9256 57.0761 40.6097 56.8925 40.2937 56.7091C40.153 56.6273 40.0122 56.5456 39.8715 56.4638C39.6953 56.3613 39.5189 56.259 39.3425 56.1568C38.8986 55.8987 38.4602 55.6349 38.028 55.3575C38.076 55.0134 38.1986 54.7574 38.364 54.4542C38.4138 54.3628 38.4637 54.2714 38.515 54.1772C38.6589 53.9231 38.8094 53.6756 38.9663 53.4296C39.1196 53.1761 39.2445 52.9101 39.3721 52.6427C39.4243 52.6427 39.4765 52.6427 39.5303 52.6427C39.5376 52.5611 39.5376 52.5611 39.5451 52.478C39.6198 52.2053 39.7426 52.0432 39.9099 51.8205C40.0268 51.6528 40.0895 51.4757 40.1628 51.2852C40.2403 51.2038 40.3192 51.1238 40.4 51.0457C40.4261 50.9666 40.4522 50.8876 40.4791 50.8062Z" fill="#40873D"/>
<path d="M38.2651 46.4146C38.6245 46.8953 38.8694 47.4688 39.1316 48.0077C39.3737 48.5021 39.6444 48.9761 39.9256 49.4488C40.1845 49.8907 40.4133 50.3455 40.6372 50.8062C40.585 50.8062 40.5329 50.8062 40.4791 50.8062C40.4709 50.8539 40.4628 50.9017 40.4544 50.9509C40.3916 51.1527 40.3089 51.2176 40.1628 51.3651C40.1095 51.498 40.0569 51.6311 40.0047 51.7644C39.8992 51.9241 39.7938 52.0838 39.6884 52.2434C39.6318 52.3749 39.5775 52.5075 39.5303 52.6427C39.4781 52.6427 39.4259 52.6427 39.3721 52.6427C39.3638 52.6864 39.3554 52.7302 39.3468 52.7752C39.2813 53.0029 39.18 53.1893 39.0657 53.3963C39.0049 53.5073 39.0049 53.5073 38.9428 53.6205C38.7859 53.8984 38.6224 54.1719 38.4573 54.4449C38.3964 54.5459 38.3964 54.5459 38.3343 54.6489C38.2933 54.7166 38.2524 54.7843 38.2102 54.8541C38.0975 55.0413 38.0975 55.0413 38.0279 55.2777C37.8698 55.1978 37.8698 55.1978 37.7907 54.9583C37.7831 54.8455 37.7797 54.7324 37.7791 54.6194C37.7785 54.5503 37.7779 54.4813 37.7774 54.4101C37.7772 54.3346 37.7769 54.259 37.7767 54.1812C37.7759 54.0616 37.7759 54.0616 37.7751 53.9396C37.7736 53.6754 37.7727 53.4112 37.7719 53.147C37.7716 53.0569 37.7712 52.9668 37.7709 52.874C37.7693 52.3973 37.7681 51.9206 37.7674 51.4439C37.7665 50.9509 37.7638 50.4578 37.7606 49.9647C37.7586 49.5861 37.7579 49.2075 37.7576 48.8289C37.7572 48.6471 37.7563 48.4653 37.7549 48.2835C37.7529 48.0294 37.753 47.7754 37.7536 47.5214C37.7525 47.446 37.7515 47.3706 37.7505 47.2929C37.7545 46.7842 37.7545 46.7842 37.9413 46.525C38.107 46.4146 38.107 46.4146 38.2651 46.4146Z" fill="#589B4D"/>
<path d="M81.1209 49.369C81.2551 49.4153 81.2551 49.4153 81.3921 49.4626C81.6961 49.6032 81.9547 49.7288 82.1488 50.0078C82.3317 50.5629 82.3336 51.2097 82.1488 51.7645C81.8955 52.1193 81.5186 52.2577 81.1209 52.4032C81.0642 52.4358 81.0075 52.4683 80.9492 52.5018C80.7527 52.5849 80.6867 52.5628 80.4883 52.4831C80.2958 52.38 80.1078 52.2747 79.92 52.1637C79.8693 52.1343 79.8186 52.1048 79.7664 52.0745C79.3936 51.8567 79.3936 51.8567 79.3023 51.7645C79.1937 51.1998 79.1357 50.5633 79.3023 50.0078C79.7152 49.4651 80.4823 49.0571 81.1209 49.369Z" fill="#689F64"/>
<path d="M62.4604 61.3462C63.2128 61.3051 63.6161 61.3303 64.2117 61.7994C64.4174 62.0602 64.4029 62.2491 64.4026 62.5789C64.4043 62.6825 64.4061 62.7862 64.4078 62.893C64.347 63.2473 64.2335 63.357 63.9628 63.582C63.8771 63.6536 63.8771 63.6536 63.7898 63.7267C63.4518 63.8708 63.1379 63.8736 62.7767 63.8215C62.3931 63.635 62.1628 63.4144 61.986 63.023C61.9316 62.62 61.8817 62.1879 62.0725 61.8169C62.1787 61.6906 62.1787 61.6906 62.3814 61.5059C62.4075 61.4532 62.4336 61.4005 62.4604 61.3462ZM62.6976 61.8253C62.9586 61.799 63.2195 61.7726 63.4883 61.7455C63.4883 61.7191 63.4883 61.6928 63.4883 61.6656C63.0466 61.6174 63.0466 61.6174 62.6976 61.8253ZM62.5395 61.8253C62.3278 62.0831 62.2293 62.2542 62.1886 62.5889C62.2248 62.8756 62.2936 63.0309 62.4604 63.2626C62.5387 63.2362 62.617 63.2099 62.6976 63.1827C62.6976 62.7348 62.6976 62.2868 62.6976 61.8253C62.6455 61.8253 62.5933 61.8253 62.5395 61.8253ZM63.6465 61.8253C63.5484 61.9793 63.5484 61.9793 63.6069 62.1347C63.6465 62.3044 63.6465 62.3044 63.602 62.4491C63.5491 62.7161 63.6433 62.9286 63.7256 63.1827C63.8038 63.1827 63.8821 63.1827 63.9628 63.1827C64.1183 62.804 64.1442 62.5434 64.0418 62.1447C63.8952 61.9498 63.8952 61.9498 63.7256 61.8253C63.6995 61.8253 63.6734 61.8253 63.6465 61.8253ZM63.0139 62.2245C63.3302 62.3044 63.3302 62.3044 63.3302 62.3044L63.0139 62.2245ZM63.0139 62.7835C63.0139 62.9679 63.0139 63.1524 63.0139 63.3424C63.1183 63.3424 63.2227 63.3424 63.3302 63.3424C63.3302 63.158 63.3302 62.9735 63.3302 62.7835C63.2258 62.7835 63.1215 62.7835 63.0139 62.7835ZM62.6186 63.3424C62.7594 63.5172 62.7594 63.5172 62.9423 63.5233C63.0051 63.5229 63.0678 63.5225 63.1325 63.5221C63.2267 63.5227 63.2267 63.5227 63.3228 63.5233C63.5057 63.5172 63.5057 63.5172 63.6465 63.3424C63.3073 63.3424 62.9681 63.3424 62.6186 63.3424Z" fill="#679E63"/>
</g>
<defs>
<clipPath id="clip0_1_2">
<rect width="1920" height="7242" fill="white" transform="translate(-1501 -4510)"/>
</clipPath>
</defs>
</svg>
