<svg id="Layer_1" data-name="Layer 1" xmlns="http://www.w3.org/2000/svg" xmlns:xlink="http://www.w3.org/1999/xlink" viewBox="0 0 1830.17 1697"><defs><style>.cls-1{mask:url(#mask);}.cls-10,.cls-12,.cls-14,.cls-2,.cls-4,.cls-6,.cls-8{mix-blend-mode:multiply;}.cls-2{fill:url(#linear-gradient);}.cls-3{mask:url(#mask-2);}.cls-4{fill:url(#linear-gradient-2);}.cls-5{mask:url(#mask-3);}.cls-6{fill:url(#linear-gradient-3);}.cls-7{mask:url(#mask-4);}.cls-8{fill:url(#linear-gradient-4);}.cls-9{mask:url(#mask-5);}.cls-10{fill:url(#linear-gradient-5);}.cls-11{mask:url(#mask-6);}.cls-12{fill:url(#linear-gradient-6);}.cls-13{mask:url(#mask-7);}.cls-14{fill:url(#linear-gradient-7);}.cls-15{fill:url(#linear-gradient-8);}.cls-16{fill:#8393d8;}.cls-16,.cls-21,.cls-27,.cls-30,.cls-56,.cls-57{fill-rule:evenodd;}.cls-17,.cls-35,.cls-36,.cls-37,.cls-44,.cls-52,.cls-54{fill:none;}.cls-17{stroke:#000;stroke-width:6.49px;}.cls-18{fill:url(#linear-gradient-9);}.cls-19{fill:url(#linear-gradient-10);}.cls-20{fill:url(#linear-gradient-11);}.cls-21{fill:url(#linear-gradient-12);}.cls-22{fill:url(#linear-gradient-13);}.cls-23{mask:url(#mask-8);}.cls-24{fill:url(#linear-gradient-14);}.cls-25{fill:url(#linear-gradient-15);}.cls-26{fill:url(#linear-gradient-16);}.cls-27{fill:url(#linear-gradient-17);}.cls-28{fill:url(#linear-gradient-18);}.cls-29{fill:url(#linear-gradient-19);}.cls-30{fill:url(#linear-gradient-21);}.cls-31{fill:#c65842;}.cls-32{fill:url(#linear-gradient-22);}.cls-33{mask:url(#mask-9);}.cls-34{fill:url(#linear-gradient-23);}.cls-35{stroke:#fff;}.cls-35,.cls-36{stroke-width:7px;}.cls-36{stroke:#fdc55f;}.cls-37{stroke:#69354b;}.cls-37,.cls-44,.cls-52,.cls-54{stroke-linecap:round;}.cls-37,.cls-44{stroke-width:6.48px;}.cls-38{mask:url(#mask-10);}.cls-39{fill:url(#linear-gradient-24);}.cls-40{mask:url(#mask-11);}.cls-41{fill:url(#linear-gradient-25);}.cls-42{fill:#241658;}.cls-43{fill:#dd6f5b;}.cls-44{stroke:#9d3d3f;}.cls-45{fill:url(#linear-gradient-26);}.cls-46{fill:url(#linear-gradient-27);}.cls-47{fill:#798cd1;opacity:0.4;isolation:isolate;}.cls-48{fill:url(#linear-gradient-28);}.cls-49{fill:#592193;}.cls-50{mask:url(#mask-12);}.cls-51{fill:url(#linear-gradient-29);}.cls-52{stroke:#bf513c;stroke-width:4px;}.cls-53{fill:#241659;}.cls-54{stroke:#221452;stroke-width:6.2px;}.cls-55{fill:#710909;}.cls-56{fill:#fff;}.cls-57{fill:#c01515;}.cls-58{mask:url(#mask-13);}.cls-59{fill:url(#linear-gradient-30);}.cls-60{fill:url(#linear-gradient-31);}.cls-61{fill:url(#linear-gradient-32);}.cls-62{mask:url(#mask-14);}.cls-63{fill:url(#linear-gradient-33);}.cls-64{filter:url(#luminosity-noclip-14);}.cls-65{filter:url(#luminosity-noclip-13);}.cls-66{filter:url(#luminosity-noclip-12);}.cls-67{filter:url(#luminosity-noclip-11);}.cls-68{filter:url(#luminosity-noclip-10);}.cls-69{filter:url(#luminosity-noclip-9);}.cls-70{filter:url(#luminosity-noclip-8);}.cls-71{filter:url(#luminosity-noclip-7);}.cls-72{filter:url(#luminosity-noclip-6);}.cls-73{filter:url(#luminosity-noclip-5);}.cls-74{filter:url(#luminosity-noclip-4);}.cls-75{filter:url(#luminosity-noclip-3);}.cls-76{filter:url(#luminosity-noclip-2);}.cls-77{filter:url(#luminosity-noclip);}</style><filter id="luminosity-noclip" x="1303.22" y="-9292" width="94.91" height="32766" filterUnits="userSpaceOnUse" color-interpolation-filters="sRGB"><feFlood flood-color="#fff" result="bg"/><feBlend in="SourceGraphic" in2="bg"/></filter><mask id="mask" x="1303.22" y="-9292" width="94.91" height="32766" maskUnits="userSpaceOnUse"><g class="cls-77"/></mask><linearGradient id="linear-gradient" x1="1350.5" y1="1674.71" x2="1367.15" y2="1888.03" gradientTransform="matrix(1, 0, 0, -1, 0, 2202)" gradientUnits="userSpaceOnUse"><stop offset="0" stop-color="#fff"/><stop offset="1"/></linearGradient><filter id="luminosity-noclip-2" x="1205.42" y="-9292" width="46.68" height="32766" filterUnits="userSpaceOnUse" color-interpolation-filters="sRGB"><feFlood flood-color="#fff" result="bg"/><feBlend in="SourceGraphic" in2="bg"/></filter><mask id="mask-2" x="1205.42" y="-9292" width="46.68" height="32766" maskUnits="userSpaceOnUse"><g class="cls-76"/></mask><linearGradient id="linear-gradient-2" x1="1219.85" y1="1631.37" x2="1330.84" y2="1381.54" xlink:href="#linear-gradient"/><filter id="luminosity-noclip-3" x="1304.17" y="-9292" width="107.53" height="32766" filterUnits="userSpaceOnUse" color-interpolation-filters="sRGB"><feFlood flood-color="#fff" result="bg"/><feBlend in="SourceGraphic" in2="bg"/></filter><mask id="mask-3" x="1304.17" y="-9292" width="107.53" height="32766" maskUnits="userSpaceOnUse"><g class="cls-75"/></mask><linearGradient id="linear-gradient-3" x1="1301.48" y1="1036.03" x2="1452.48" y2="1284.29" xlink:href="#linear-gradient"/><filter id="luminosity-noclip-4" x="1206" y="-9292" width="223.69" height="32766" filterUnits="userSpaceOnUse" color-interpolation-filters="sRGB"><feFlood flood-color="#fff" result="bg"/><feBlend in="SourceGraphic" in2="bg"/></filter><mask id="mask-4" x="1206" y="-9292" width="223.69" height="32766" maskUnits="userSpaceOnUse"><g class="cls-74"/></mask><linearGradient id="linear-gradient-4" x1="1335.18" y1="1233.1" x2="1310.73" y2="1523.54" xlink:href="#linear-gradient"/><filter id="luminosity-noclip-5" x="1106.72" y="-9292" width="57.86" height="32766" filterUnits="userSpaceOnUse" color-interpolation-filters="sRGB"><feFlood flood-color="#fff" result="bg"/><feBlend in="SourceGraphic" in2="bg"/></filter><mask id="mask-5" x="1106.72" y="-9292" width="57.86" height="32766" maskUnits="userSpaceOnUse"><g class="cls-73"/></mask><linearGradient id="linear-gradient-5" x1="1123.63" y1="1012.55" x2="1191.62" y2="1250.29" xlink:href="#linear-gradient"/><filter id="luminosity-noclip-6" x="1383.26" y="-9292" width="392.34" height="32766" filterUnits="userSpaceOnUse" color-interpolation-filters="sRGB"><feFlood flood-color="#fff" result="bg"/><feBlend in="SourceGraphic" in2="bg"/></filter><mask id="mask-6" x="1383.26" y="-9292" width="392.34" height="32766" maskUnits="userSpaceOnUse"><g class="cls-72"/></mask><linearGradient id="linear-gradient-6" x1="1564.39" y1="576.79" x2="1637.64" y2="1241.09" xlink:href="#linear-gradient"/><filter id="luminosity-noclip-7" x="1139.66" y="-9292" width="21.65" height="32766" filterUnits="userSpaceOnUse" color-interpolation-filters="sRGB"><feFlood flood-color="#fff" result="bg"/><feBlend in="SourceGraphic" in2="bg"/></filter><mask id="mask-7" x="1139.66" y="-9292" width="21.65" height="32766" maskUnits="userSpaceOnUse"><g class="cls-71"/></mask><linearGradient id="linear-gradient-7" x1="1145.02" y1="1469.96" x2="1182.87" y2="1399.83" xlink:href="#linear-gradient"/><linearGradient id="linear-gradient-8" x1="720.34" y1="1829.42" x2="1697.61" y2="91.21" gradientTransform="matrix(1, 0, 0, -1, 0, 2202)" gradientUnits="userSpaceOnUse"><stop offset="0" stop-color="#bbe3ff"/><stop offset="1" stop-color="#a063ed"/></linearGradient><linearGradient id="linear-gradient-9" x1="1737.59" y1="1665.67" x2="1684.64" y2="1938.04" gradientTransform="matrix(1, 0, 0, -1, 0, 2202)" gradientUnits="userSpaceOnUse"><stop offset="0" stop-color="#13596c"/><stop offset="1" stop-color="#7ac1e5"/></linearGradient><linearGradient id="linear-gradient-10" x1="1844.93" y1="1985.52" x2="1634.44" y2="1338.98" gradientTransform="matrix(1, 0, 0, -1, 0, 2202)" gradientUnits="userSpaceOnUse"><stop offset="0" stop-color="#87ffc3"/><stop offset="1" stop-color="#6d8dff"/></linearGradient><linearGradient id="linear-gradient-11" x1="1812.37" y1="1778.16" x2="1292.91" y2="1047.37" xlink:href="#linear-gradient-10"/><linearGradient id="linear-gradient-12" x1="1629.61" y1="1471.61" x2="1780.3" y2="1673.68" gradientTransform="matrix(1, 0, 0, -1, 0, 2202)" gradientUnits="userSpaceOnUse"><stop offset="0" stop-color="#13596c"/><stop offset="1" stop-color="#7dd0dc"/></linearGradient><linearGradient id="linear-gradient-13" x1="1476.39" y1="1478.93" x2="1351.4" y2="1700.67" xlink:href="#linear-gradient-9"/><filter id="luminosity-noclip-8" x="1303.22" y="430.28" width="94.91" height="115.9" filterUnits="userSpaceOnUse" color-interpolation-filters="sRGB"><feFlood flood-color="#fff" result="bg"/><feBlend in="SourceGraphic" in2="bg"/></filter><mask id="mask-8" x="1107.79" y="225.46" width="94.91" height="115.9" maskUnits="userSpaceOnUse"><g class="cls-70"><g transform="translate(-195.42 -204.83)"><g class="cls-1"><path class="cls-2" d="M1303.48,515.6c-3.81-21.74,34.57-65.94,54.23-85.32l40.42,108.25a168.14,168.14,0,0,1-43.16,7.58C1332,546.84,1308.25,542.78,1303.48,515.6Z"/></g></g></g></mask><linearGradient id="linear-gradient-14" x1="1350.5" y1="1674.71" x2="1367.15" y2="1888.03" gradientTransform="matrix(1, 0, 0, -1, 0, 2202)" gradientUnits="userSpaceOnUse"><stop offset="0" stop-color="#13596c"/><stop offset="1" stop-color="#3f96bb"/></linearGradient><linearGradient id="linear-gradient-15" x1="1721.52" y1="2120.12" x2="1232.06" y2="1393.2" xlink:href="#linear-gradient-10"/><linearGradient id="linear-gradient-16" x1="633.51" y1="811.09" x2="950.01" y2="285.54" gradientTransform="matrix(1, 0, 0, -1, 0, 2202)" gradientUnits="userSpaceOnUse"><stop offset="0" stop-color="#007cd6"/><stop offset="1" stop-color="#3d00d1"/></linearGradient><linearGradient id="linear-gradient-17" x1="854.37" y1="597.11" x2="671.02" y2="746.72" gradientTransform="matrix(1, 0, 0, -1, 0, 2202)" gradientUnits="userSpaceOnUse"><stop offset="0" stop-color="#0434a5"/><stop offset="0.97" stop-color="#015bb6"/></linearGradient><linearGradient id="linear-gradient-18" x1="1001.3" y1="997.52" x2="848.81" y2="668.46" gradientTransform="matrix(1, 0, 0, -1, 0, 2202)" gradientUnits="userSpaceOnUse"><stop offset="0" stop-color="#8192d0"/><stop offset="1" stop-color="#91a1de"/></linearGradient><linearGradient id="linear-gradient-19" x1="1074.79" y1="1014.55" x2="1544.78" y2="-211.02" xlink:href="#linear-gradient-16"/><linearGradient id="linear-gradient-21" x1="1340.42" y1="464.88" x2="1192.64" y2="826.1" xlink:href="#linear-gradient-17"/><linearGradient id="linear-gradient-22" x1="1399.43" y1="1514.31" x2="1399.43" y2="522.46" gradientTransform="matrix(1, 0, 0, -1, 0, 2202)" gradientUnits="userSpaceOnUse"><stop offset="0" stop-color="#995c77"/><stop offset="1" stop-color="#854762"/></linearGradient><filter id="luminosity-noclip-9" x="1206" y="688.49" width="223.69" height="304.77" filterUnits="userSpaceOnUse" color-interpolation-filters="sRGB"><feFlood flood-color="#fff" result="bg"/><feBlend in="SourceGraphic" in2="bg"/></filter><mask id="mask-9" x="1010.58" y="483.66" width="223.69" height="304.77" maskUnits="userSpaceOnUse"><g class="cls-69"><g transform="translate(-195.42 -204.83)"><g class="cls-7"><path class="cls-8" d="M1215.5,929.5c-2.4-27.2-7.5-75.17-9.5-98,26-17,40.56-23.66,52.5-37,83-92.73,176-122,171-98-14,68-96,265.5-144.5,290S1218.5,963.5,1215.5,929.5Z"/></g></g></g></mask><linearGradient id="linear-gradient-23" x1="1335.18" y1="1233.1" x2="1310.73" y2="1523.54" gradientTransform="matrix(1, 0, 0, -1, 0, 2202)" gradientUnits="userSpaceOnUse"><stop offset="0" stop-color="#68344b"/><stop offset="1" stop-color="#68344b"/></linearGradient><filter id="luminosity-noclip-10" x="1106.72" y="944.13" width="57.86" height="268.9" filterUnits="userSpaceOnUse" color-interpolation-filters="sRGB"><feFlood flood-color="#fff" result="bg"/><feBlend in="SourceGraphic" in2="bg"/></filter><mask id="mask-10" x="911.29" y="739.3" width="57.86" height="268.9" maskUnits="userSpaceOnUse"><g class="cls-68"><g transform="translate(-195.42 -204.83)"><g class="cls-9"><path class="cls-10" d="M1144.29,1120.69c3.74,37.1,11.65,70.74,20.29,92.34a216.87,216.87,0,0,0-21-13c-11.67-6.48-27.54-12.42-34-14.58-2.7-28.62-5.83-93.63,3.24-124.73s38.34-90.71,51.83-116.63c-3.24,14.58-12,42-16.19,69.66C1142,1055.08,1140.08,1079,1144.29,1120.69Z"/></g></g></g></mask><linearGradient id="linear-gradient-24" x1="1123.63" y1="1012.55" x2="1191.62" y2="1250.29" xlink:href="#linear-gradient-23"/><filter id="luminosity-noclip-11" x="1383.26" y="976.53" width="392.34" height="702.97" filterUnits="userSpaceOnUse" color-interpolation-filters="sRGB"><feFlood flood-color="#fff" result="bg"/><feBlend in="SourceGraphic" in2="bg"/></filter><mask id="mask-11" x="1187.84" y="771.7" width="392.34" height="702.97" maskUnits="userSpaceOnUse"><g class="cls-67"><g transform="translate(-195.42 -204.83)"><g class="cls-11"><path class="cls-12" d="M1517.71,1180.63c-13-81.64-5.4-170.08,0-204.1,1.08,3.78,5.51,16.2,14.58,35.63s25.38,38.34,32.4,45.36c56.69,72.89,169.61,211.13,187.76,240.94,22.66,37.23,11.25,94.31,8,110.54v0c-3.24,16.2-4.86,40.49,8.1,79.37s3.48,38.88,3.48,53.45-6.48,35.64,0,55.08c5.18,15.55,7,31.57-10.53,57.07s-50,25.5-50,25.5c0-4.86-1.35-44-9.13-64.75-9.72-25.92-22.67-32.4-55.07-58.32s-40.5-59.93-55.08-85.85-32.39-42.11-79.37-56.69c-37.58-11.67-102-41.58-129.59-55.08C1433.48,1333.43,1530.67,1262.27,1517.71,1180.63Z"/></g></g></g></mask><linearGradient id="linear-gradient-25" x1="1564.39" y1="576.79" x2="1637.64" y2="1241.09" xlink:href="#linear-gradient-23"/><linearGradient id="linear-gradient-26" x1="1092.27" y1="939.94" x2="1088.15" y2="814.16" gradientTransform="matrix(1, 0, 0, -1, 0, 2202)" gradientUnits="userSpaceOnUse"><stop offset="0" stop-color="#dae2ff"/><stop offset="1" stop-color="#91a1de"/></linearGradient><linearGradient id="linear-gradient-27" x1="607.27" y1="1254.95" x2="888.75" y2="-86.03" gradientTransform="matrix(1, 0, 0, -1, 0, 2202)" gradientUnits="userSpaceOnUse"><stop offset="0" stop-color="#fff"/><stop offset="1" stop-color="#91a1de"/></linearGradient><linearGradient id="linear-gradient-28" x1="1038.73" y1="1738.74" x2="1282.49" y2="1548.42" gradientTransform="matrix(1, 0, 0, -1, 0, 2202)" gradientUnits="userSpaceOnUse"><stop offset="0.01" stop-color="#1f134e"/><stop offset="1" stop-color="#5c2196"/></linearGradient><filter id="luminosity-noclip-12" x="1139.66" y="732.32" width="21.65" height="19.33" filterUnits="userSpaceOnUse" color-interpolation-filters="sRGB"><feFlood flood-color="#fff" result="bg"/><feBlend in="SourceGraphic" in2="bg"/></filter><mask id="mask-12" x="944.24" y="527.49" width="21.65" height="19.33" maskUnits="userSpaceOnUse"><g class="cls-66"><g transform="translate(-195.42 -204.83)"><g class="cls-13"><path class="cls-14" d="M1145.77,741.83c4.57-2.18,9-7.12,10.57-9.32,4.47-1.48,7,6,3,14s-17,4.81-18.89,2.93S1140.05,744.56,1145.77,741.83Z"/></g></g></g></mask><linearGradient id="linear-gradient-29" x1="1145.02" y1="1469.96" x2="1182.87" y2="1399.83" gradientTransform="matrix(1, 0, 0, -1, 0, 2202)" gradientUnits="userSpaceOnUse"><stop offset="0" stop-color="#bc4e39"/><stop offset="1" stop-color="#ff937f"/></linearGradient><filter id="luminosity-noclip-13" x="1205.42" y="547.69" width="46.68" height="73.89" filterUnits="userSpaceOnUse" color-interpolation-filters="sRGB"><feFlood flood-color="#fff" result="bg"/><feBlend in="SourceGraphic" in2="bg"/></filter><mask id="mask-13" x="1010" y="342.86" width="46.68" height="73.89" maskUnits="userSpaceOnUse"><g class="cls-65"><g transform="translate(-195.42 -204.83)"><g class="cls-3"><path class="cls-4" d="M1213.85,586c-7-12.93,6-47.94,27.61-35.7,12,6.78,12,20,8.88,28-1.77,4.83-6.83,16.51-12.94,24.65-7.64,10.16-17.22,19-26.19,18.64s-6.79-11.42,1.61-15.55S1220.83,598.88,1213.85,586Z"/></g></g></g></mask><linearGradient id="linear-gradient-30" x1="1219.85" y1="1631.37" x2="1330.84" y2="1381.54" xlink:href="#linear-gradient-29"/><linearGradient id="linear-gradient-31" x1="1066.54" y1="1690.7" x2="1064.71" y2="1639.99" gradientTransform="matrix(1, 0, 0, -1, 0, 2202)" gradientUnits="userSpaceOnUse"><stop offset="0" stop-color="#c65842"/><stop offset="1" stop-color="#dd6f5b"/></linearGradient><linearGradient id="linear-gradient-32" x1="1255.42" y1="1504.97" x2="1120.71" y2="1252.76" gradientTransform="matrix(1, 0, 0, -1, 0, 2202)" gradientUnits="userSpaceOnUse"><stop offset="0" stop-color="#be513b"/><stop offset="1" stop-color="#dd6f5b"/></linearGradient><filter id="luminosity-noclip-14" x="1304.17" y="894.36" width="107.53" height="312.07" filterUnits="userSpaceOnUse" color-interpolation-filters="sRGB"><feFlood flood-color="#fff" result="bg"/><feBlend in="SourceGraphic" in2="bg"/></filter><mask id="mask-14" x="1108.75" y="689.53" width="107.53" height="312.07" maskUnits="userSpaceOnUse"><g class="cls-64"><g transform="translate(-195.42 -204.83)"><g class="cls-5"><path class="cls-6" d="M1335.42,1143.83c14.14-33,56.75-180,76.28-249.47-10.18,73.34-35.78,230.6-56.68,272.86s-42.61,42.1-50.85,36.73C1308.69,1197.65,1321.27,1176.8,1335.42,1143.83Z"/></g></g></g></mask><linearGradient id="linear-gradient-33" x1="1301.48" y1="1036.03" x2="1452.48" y2="1284.29" xlink:href="#linear-gradient-23"/></defs><title>person</title><path class="cls-15" d="M398.45,1513.32c40.28,75.83,99.72,101.7,124.41,105.16,6.41-2.47,45,1.18,148.1,35.54,128.85,43,148.1,111.08,291.76,171.8s237,60.72,358.4,32.58,152.55-25.18,197-20.73,226.6,100.71,269.54,48.87-19.25-96.27-59.24-160c-32-50.95-1.88-91.64,40-109.59,47-20.16,122.33-19.55,173.28-115.52s-1.48-192-34.06-228.08L1839,1186.76C1884,1162.08,2011.87,1073,2000.91,955c-17-102.07-100.71-91.82-191.05-168.83s-112.56-157-176.24-271c-50.95-91.23-137.65-146.38-241.41-124.41-109.25,23.14-181.87,87.68-251.77,88.86C1053.06,481.06,982,404,851.64,344.8c-104.26-47.39-220.67-3-260.66,80-46.24,95.91-4.44,196.08-40,239.92-44.44,54.8-94.79,71.09-137.74,74s-106.63,7.41-157,65.17-82.93,143.66-42.95,251.77,63.69,114,117,183.65S348.1,1418.54,398.45,1513.32Z" transform="translate(-195.42 -204.83)"/><path class="cls-16" d="M1249.43,1055.83a6.4,6.4,0,0,0,6.45-6.28c0-1,0-2.06,0-3.1v-.14a6.43,6.43,0,0,0-6.47-6.37h0a6.56,6.56,0,0,0-6.55,6.56v2.78a6.54,6.54,0,0,0,6.54,6.55Zm2.5,32.83a4.5,4.5,0,0,0-4.46-5.32h0a4.58,4.58,0,0,0-4.58,4.58v7.52a3.78,3.78,0,0,0,3.78,3.78h0a3.74,3.74,0,0,0,3.65-2.9C1250.9,1093.78,1251.43,1091.23,1251.93,1088.66Zm-37.2,87.07a3.49,3.49,0,0,0,.65-2h0a3.57,3.57,0,0,0-3.57-3.57h-4.37a8,8,0,0,0-7.94,7.94v2.88a5.06,5.06,0,0,0,5.06,5.06h0a5,5,0,0,0,3.94-1.9Q1211.71,1180,1214.73,1175.73Zm-44.64,46.77a5,5,0,0,0,1.91-3.94h0a5.07,5.07,0,0,0-5.06-5.06h-2.88a8,8,0,0,0-8,7.94v4.38a3.56,3.56,0,0,0,3.57,3.56h0a3.49,3.49,0,0,0,2-.65Q1166,1225.72,1170.09,1222.5Zm-87.77,41.82a3.74,3.74,0,0,0,2.89-3.65h0a3.78,3.78,0,0,0-3.78-3.78h-7.52a4.58,4.58,0,0,0-4.58,4.58h0a4.5,4.5,0,0,0,5.32,4.46Q1078.51,1265.2,1082.32,1264.32Zm-46.77,5.56a6.4,6.4,0,0,0,6.28-6.45h0a6.54,6.54,0,0,0-6.55-6.54h-2.78a6.56,6.56,0,0,0-6.56,6.55h0a6.43,6.43,0,0,0,6.37,6.47h.14C1033.49,1269.91,1034.52,1269.9,1035.55,1269.88Zm-42.65-3.47a4.73,4.73,0,0,0,5.54-4.7h0a4.82,4.82,0,0,0-4.83-4.82h-6.92a4.13,4.13,0,0,0-4.13,4.13h0a4.07,4.07,0,0,0,3.21,4C988.14,1265.52,990.51,1266,992.9,1266.41Zm-90.29-38.08a5.66,5.66,0,0,0,3.3,1.05h0a5.74,5.74,0,0,0,5.75-5.74v-2.2a8,8,0,0,0-7.94-7.94h-1.4a6.54,6.54,0,0,0-6.54,6.54h0a6.42,6.42,0,0,0,2.55,5.15Q900.45,1226.78,902.61,1228.33Zm-46.78-45a6.89,6.89,0,0,0,5.45,2.64h0a7,7,0,0,0,7-7v-1a7.94,7.94,0,0,0-7.94-7.94h-1.4a6.54,6.54,0,0,0-6.54,6.54h0a6.47,6.47,0,0,0,1.28,3.87C854.39,1181.47,855.11,1182.42,855.83,1183.35Zm-31.76-56a.42.42,0,0,0,.81-.16h0a.42.42,0,0,0-.42-.42h0a.43.43,0,0,0-.39.58Zm-9.76-32.21a5.3,5.3,0,0,0,5.19,4.13h0a5.38,5.38,0,0,0,5.38-5.38v-4.61a5.89,5.89,0,0,0-5.89-5.89h0a5.75,5.75,0,0,0-5.71,6.84C813.6,1091.82,814,1093.46,814.31,1095.09Zm-5.3-46.94a7.82,7.82,0,0,0,7.9,7.68h0a8,8,0,0,0,8-7.94h0a7.94,7.94,0,0,0-7.94-8h-1.57a6.33,6.33,0,0,0-6.37,6.28h0v.46C809,1047.17,809,1047.66,809,1048.15Zm3.76-42.77a6,6,0,0,0,6,7.06h0a6.15,6.15,0,0,0,6.15-6.15v-4a5.72,5.72,0,0,0-5.72-5.72h0a5.63,5.63,0,0,0-5.54,4.46C813.32,1002.47,813,1003.92,812.77,1005.38Zm10.44-37.51a.87.87,0,0,0,.81,1.18h0a.87.87,0,0,0,.86-.87h0a.86.86,0,0,0-1.67-.31Zm30.48-55.51a6.52,6.52,0,0,0-1.3,3.92v1.44a8,8,0,0,0,7.94,7.94h0a7.94,7.94,0,0,0,7.94-7.94h0a7.93,7.93,0,0,0-7.94-7.94h-1.42a6.51,6.51,0,0,0-5.22,2.58Zm44.67-44.67a6.51,6.51,0,0,0-2.58,5.22v1.42a7.93,7.93,0,0,0,7.94,7.94h0a7.94,7.94,0,0,0,7.94-7.94h0a7.94,7.94,0,0,0-7.94-7.94h-1.44a6.52,6.52,0,0,0-3.92,1.3Zm55.51-30.48a.86.86,0,0,0,.31,1.67h0a.87.87,0,0,0,.87-.87h0a.87.87,0,0,0-1.18-.8ZM987,827.62a5.63,5.63,0,0,0-4.46,5.54h0a5.72,5.72,0,0,0,5.72,5.72h4a6.15,6.15,0,0,0,6.15-6.15h0a6,6,0,0,0-7.06-6C989.92,827,988.47,827.32,987,827.62Zm45.07-4.62a6.2,6.2,0,0,0-6.15,6.24v1.7a7.94,7.94,0,0,0,8,7.94h0a8,8,0,0,0,7.94-8h0a7.82,7.82,0,0,0-7.68-7.9h-2.06Zm44.08,4.27a5.76,5.76,0,0,0-6.84,5.71h0a5.9,5.9,0,0,0,5.89,5.9h4.61a5.38,5.38,0,0,0,5.38-5.38h0a5.29,5.29,0,0,0-4.13-5.19C1079.45,827.94,1077.82,827.6,1076.17,827.27Zm37.13,10.8a.43.43,0,0,0-.58.39h0a.42.42,0,0,0,.42.42h0a.42.42,0,0,0,.16-.81Zm53.22,29.6a6.44,6.44,0,0,0-3.87-1.28h0a6.54,6.54,0,0,0-6.54,6.54v1.4a7.94,7.94,0,0,0,8,7.94h.94a7,7,0,0,0,7-7h0a6.86,6.86,0,0,0-2.64-5.44C1168.42,869.11,1167.47,868.39,1166.52,867.67Zm44.67,44.66a6.42,6.42,0,0,0-5.15-2.55h0a6.54,6.54,0,0,0-6.54,6.54v1.4a8,8,0,0,0,7.94,7.94h2.2a5.74,5.74,0,0,0,5.74-5.75h0a5.66,5.66,0,0,0-1.05-3.3Q1212.78,914.45,1211.19,912.33ZM1251,999.77a4.07,4.07,0,0,0-4-3.21h0a4.13,4.13,0,0,0-4.13,4.13v6.92a4.82,4.82,0,0,0,4.82,4.83h0a4.74,4.74,0,0,0,4.71-5.54Q1251.78,1003.32,1251,999.77Zm-296-125.44a7.94,7.94,0,0,0-7.94-7.94h0a7.93,7.93,0,0,0-7.94,7.94h0a7.93,7.93,0,0,0,7.94,7.94h0a7.94,7.94,0,0,0,7.94-7.94Zm27.51,0a7.93,7.93,0,0,1,7.94-7.94h0a7.94,7.94,0,0,1,7.94,7.94h0a7.94,7.94,0,0,1-7.94,7.94h0a7.93,7.93,0,0,1-7.94-7.94Zm59.27,0a7.94,7.94,0,0,0-7.94-7.94h0a7.94,7.94,0,0,0-8,7.94h0a7.94,7.94,0,0,0,8,7.94h0a7.94,7.94,0,0,0,7.94-7.94Zm27.5,0a7.93,7.93,0,0,1,7.94-7.94h0a7.94,7.94,0,0,1,7.94,7.94h0a7.94,7.94,0,0,1-7.94,7.94h0a7.93,7.93,0,0,1-7.94-7.94Zm59.27,0a7.93,7.93,0,0,0-7.94-7.94h0a7.94,7.94,0,0,0-7.94,7.94h0a7.94,7.94,0,0,0,7.94,7.94h0a7.93,7.93,0,0,0,7.94-7.94ZM895.78,917.72a7.93,7.93,0,0,1,7.94-7.94h0a7.94,7.94,0,0,1,7.94,7.94h0a8,8,0,0,1-7.94,7.94h0a7.94,7.94,0,0,1-7.94-7.94Zm59.27,0a7.94,7.94,0,0,0-7.94-7.94h0a7.93,7.93,0,0,0-7.94,7.94h0a7.94,7.94,0,0,0,7.94,7.94h0a8,8,0,0,0,7.94-7.94Zm27.51,0a7.93,7.93,0,0,1,7.94-7.94h0a7.94,7.94,0,0,1,7.94,7.94h0a8,8,0,0,1-7.94,7.94h0a7.94,7.94,0,0,1-7.94-7.94Zm59.27,0a7.94,7.94,0,0,0-7.94-7.94h0a7.94,7.94,0,0,0-8,7.94h0a8,8,0,0,0,8,7.94h0a8,8,0,0,0,7.94-7.94Zm27.5,0a7.93,7.93,0,0,1,7.94-7.94h0a7.94,7.94,0,0,1,7.94,7.94h0a8,8,0,0,1-7.94,7.94h0a7.94,7.94,0,0,1-7.94-7.94Zm59.27,0a7.93,7.93,0,0,0-7.94-7.94h0a7.94,7.94,0,0,0-7.94,7.94h0a8,8,0,0,0,7.94,7.94h0a7.94,7.94,0,0,0,7.94-7.94Zm27.51,0a7.94,7.94,0,0,1,8-7.94h0a7.94,7.94,0,0,1,7.94,7.94h0a8,8,0,0,1-7.94,7.94h0a8,8,0,0,1-8-7.94ZM868.27,961.11a7.93,7.93,0,0,0-7.94-7.94h0a7.94,7.94,0,0,0-7.94,7.94h0a8,8,0,0,0,7.94,7.94h0a7.94,7.94,0,0,0,7.94-7.94Zm27.51,0a7.93,7.93,0,0,1,7.94-7.94h0a7.94,7.94,0,0,1,7.94,7.94h0a8,8,0,0,1-7.94,7.94h0a7.94,7.94,0,0,1-7.94-7.94Zm59.27,0a7.94,7.94,0,0,0-7.94-7.94h0a7.93,7.93,0,0,0-7.94,7.94h0a7.94,7.94,0,0,0,7.94,7.94h0a8,8,0,0,0,7.94-7.94Zm27.51,0a7.93,7.93,0,0,1,7.94-7.94h0a7.94,7.94,0,0,1,7.94,7.94h0a8,8,0,0,1-7.94,7.94h0a7.94,7.94,0,0,1-7.94-7.94Zm59.27,0a7.94,7.94,0,0,0-7.94-7.94h0a7.94,7.94,0,0,0-8,7.94h0a8,8,0,0,0,8,7.94h0a8,8,0,0,0,7.94-7.94Zm27.5,0a7.93,7.93,0,0,1,7.94-7.94h0a7.94,7.94,0,0,1,7.94,7.94h0a8,8,0,0,1-7.94,7.94h0a7.94,7.94,0,0,1-7.94-7.94Zm59.27,0a7.93,7.93,0,0,0-7.94-7.94h0a7.94,7.94,0,0,0-7.94,7.94h0a8,8,0,0,0,7.94,7.94h0a7.94,7.94,0,0,0,7.94-7.94Zm27.51,0a7.94,7.94,0,0,1,8-7.94h0a7.94,7.94,0,0,1,7.94,7.94h0a8,8,0,0,1-7.94,7.94h0a8,8,0,0,1-8-7.94Zm59.27,0a7.93,7.93,0,0,0-7.94-7.94h0a7.94,7.94,0,0,0-7.94,7.94h0a8,8,0,0,0,7.94,7.94h0a7.94,7.94,0,0,0,7.94-7.94ZM868.27,1004.5a7.93,7.93,0,0,0-7.94-7.94h0a7.94,7.94,0,0,0-7.94,7.94h0a8,8,0,0,0,7.94,7.94h0a7.94,7.94,0,0,0,7.94-7.94Zm27.51,0a7.93,7.93,0,0,1,7.94-7.94h0a7.94,7.94,0,0,1,7.94,7.94h0a8,8,0,0,1-7.94,7.94h0a7.94,7.94,0,0,1-7.94-7.94Zm59.27,0a7.94,7.94,0,0,0-7.94-7.94h0a7.93,7.93,0,0,0-7.94,7.94h0a7.94,7.94,0,0,0,7.94,7.94h0a8,8,0,0,0,7.94-7.94Zm27.51,0a7.93,7.93,0,0,1,7.94-7.94h0a7.94,7.94,0,0,1,7.94,7.94h0a8,8,0,0,1-7.94,7.94h0a7.94,7.94,0,0,1-7.94-7.94Zm59.27,0a7.94,7.94,0,0,0-7.94-7.94h0a7.94,7.94,0,0,0-8,7.94h0a8,8,0,0,0,8,7.94h0a8,8,0,0,0,7.94-7.94Zm27.5,0a7.93,7.93,0,0,1,7.94-7.94h0a7.94,7.94,0,0,1,7.94,7.94h0a8,8,0,0,1-7.94,7.94h0a7.94,7.94,0,0,1-7.94-7.94Zm59.27,0a7.93,7.93,0,0,0-7.94-7.94h0a7.94,7.94,0,0,0-7.94,7.94h0a8,8,0,0,0,7.94,7.94h0a7.94,7.94,0,0,0,7.94-7.94Zm27.51,0a7.94,7.94,0,0,1,8-7.94h0a7.94,7.94,0,0,1,7.94,7.94h0a8,8,0,0,1-7.94,7.94h0a8,8,0,0,1-8-7.94Zm59.27,0a7.93,7.93,0,0,0-7.94-7.94h0a7.94,7.94,0,0,0-7.94,7.94h0a8,8,0,0,0,7.94,7.94h0a7.94,7.94,0,0,0,7.94-7.94Zm-347.11,43.39a7.94,7.94,0,0,0-7.94-8h0a8,8,0,0,0-7.94,8h0a8,8,0,0,0,7.94,7.94h0a7.94,7.94,0,0,0,7.94-7.94Zm27.51,0a7.94,7.94,0,0,1,7.94-8h0a8,8,0,0,1,7.94,8h0a8,8,0,0,1-7.94,7.94h0a7.94,7.94,0,0,1-7.94-7.94Zm59.27,0a8,8,0,0,0-7.94-8h0a7.94,7.94,0,0,0-7.94,8h0a7.94,7.94,0,0,0,7.94,7.94h0a8,8,0,0,0,7.94-7.94Zm27.51,0a7.94,7.94,0,0,1,7.94-8h0a8,8,0,0,1,7.94,8h0a8,8,0,0,1-7.94,7.94h0a7.94,7.94,0,0,1-7.94-7.94Zm59.27,0a8,8,0,0,0-7.94-8h0a8,8,0,0,0-8,8h0a8,8,0,0,0,8,7.94h0a8,8,0,0,0,7.94-7.94Zm27.5,0a7.94,7.94,0,0,1,7.94-8h0a8,8,0,0,1,7.94,8h0a8,8,0,0,1-7.94,7.94h0a7.94,7.94,0,0,1-7.94-7.94Zm59.27,0a7.94,7.94,0,0,0-7.94-8h0a8,8,0,0,0-7.94,8h0a8,8,0,0,0,7.94,7.94h0a7.94,7.94,0,0,0,7.94-7.94Zm27.51,0a8,8,0,0,1,8-8h0a8,8,0,0,1,7.94,8h0a8,8,0,0,1-7.94,7.94h0a8,8,0,0,1-8-7.94Zm59.27,0a7.94,7.94,0,0,0-7.94-8h0a8,8,0,0,0-7.94,8h0a8,8,0,0,0,7.94,7.94h0a7.94,7.94,0,0,0,7.94-7.94Zm-347.11,43.39a7.93,7.93,0,0,0-7.94-7.94h0a7.94,7.94,0,0,0-7.94,7.94h0a8,8,0,0,0,7.94,7.94h0a7.94,7.94,0,0,0,7.94-7.94Zm27.51,0a7.93,7.93,0,0,1,7.94-7.94h0a7.94,7.94,0,0,1,7.94,7.94h0a8,8,0,0,1-7.94,7.94h0a7.94,7.94,0,0,1-7.94-7.94Zm59.27,0a7.94,7.94,0,0,0-7.94-7.94h0a7.93,7.93,0,0,0-7.94,7.94h0a7.94,7.94,0,0,0,7.94,7.94h0a8,8,0,0,0,7.94-7.94Zm27.51,0a7.93,7.93,0,0,1,7.94-7.94h0a7.94,7.94,0,0,1,7.94,7.94h0a8,8,0,0,1-7.94,7.94h0a7.94,7.94,0,0,1-7.94-7.94Zm59.27,0a7.94,7.94,0,0,0-7.94-7.94h0a7.94,7.94,0,0,0-8,7.94h0a8,8,0,0,0,8,7.94h0a8,8,0,0,0,7.94-7.94Zm27.5,0a7.93,7.93,0,0,1,7.94-7.94h0a7.94,7.94,0,0,1,7.94,7.94h0a8,8,0,0,1-7.94,7.94h0a7.94,7.94,0,0,1-7.94-7.94Zm59.27,0a7.93,7.93,0,0,0-7.94-7.94h0a7.94,7.94,0,0,0-7.94,7.94h0a8,8,0,0,0,7.94,7.94h0a7.94,7.94,0,0,0,7.94-7.94Zm27.51,0a7.94,7.94,0,0,1,8-7.94h0a7.94,7.94,0,0,1,7.94,7.94h0a8,8,0,0,1-7.94,7.94h0a8,8,0,0,1-8-7.94Zm59.27,0a7.93,7.93,0,0,0-7.94-7.94h0a7.94,7.94,0,0,0-7.94,7.94h0a8,8,0,0,0,7.94,7.94h0a7.94,7.94,0,0,0,7.94-7.94Zm-347.11,43.38a7.94,7.94,0,0,0-7.94-7.94h0a8,8,0,0,0-7.94,7.94h0a7.94,7.94,0,0,0,7.94,7.94h0a7.93,7.93,0,0,0,7.94-7.94Zm27.51,0a7.94,7.94,0,0,1,7.94-7.94h0a8,8,0,0,1,7.94,7.94h0a7.94,7.94,0,0,1-7.94,7.94h0a7.93,7.93,0,0,1-7.94-7.94Zm59.27,0a8,8,0,0,0-7.94-7.94h0a7.94,7.94,0,0,0-7.94,7.94h0a7.93,7.93,0,0,0,7.94,7.94h0a7.94,7.94,0,0,0,7.94-7.94Zm27.51,0a7.94,7.94,0,0,1,7.94-7.94h0a8,8,0,0,1,7.94,7.94h0a7.94,7.94,0,0,1-7.94,7.94h0a7.93,7.93,0,0,1-7.94-7.94Zm59.27,0a8,8,0,0,0-7.94-7.94h0a8,8,0,0,0-8,7.94h0a7.94,7.94,0,0,0,8,7.94h0a7.94,7.94,0,0,0,7.94-7.94Zm27.5,0a7.94,7.94,0,0,1,7.94-7.94h0a8,8,0,0,1,7.94,7.94h0a7.94,7.94,0,0,1-7.94,7.94h0a7.93,7.93,0,0,1-7.94-7.94Zm59.27,0a7.94,7.94,0,0,0-7.94-7.94h0a8,8,0,0,0-7.94,7.94h0a7.94,7.94,0,0,0,7.94,7.94h0a7.93,7.93,0,0,0,7.94-7.94Zm27.51,0a8,8,0,0,1,8-7.94h0a8,8,0,0,1,7.94,7.94h0a7.94,7.94,0,0,1-7.94,7.94h0a7.94,7.94,0,0,1-8-7.94Zm59.27,0a7.94,7.94,0,0,0-7.94-7.94h0a8,8,0,0,0-7.94,7.94h0a7.94,7.94,0,0,0,7.94,7.94h0a7.93,7.93,0,0,0,7.94-7.94Zm-319.6,43.39a7.94,7.94,0,0,1,7.94-7.94h0a8,8,0,0,1,7.94,7.94h0a7.94,7.94,0,0,1-7.94,7.94h0a7.93,7.93,0,0,1-7.94-7.94Zm59.27,0a8,8,0,0,0-7.94-7.94h0a7.94,7.94,0,0,0-7.94,7.94h0a7.93,7.93,0,0,0,7.94,7.94h0a7.94,7.94,0,0,0,7.94-7.94Zm27.51,0a7.94,7.94,0,0,1,7.94-7.94h0a8,8,0,0,1,7.94,7.94h0a7.94,7.94,0,0,1-7.94,7.94h0a7.93,7.93,0,0,1-7.94-7.94Zm59.27,0a8,8,0,0,0-7.94-7.94h0a8,8,0,0,0-8,7.94h0a7.94,7.94,0,0,0,8,7.94h0a7.94,7.94,0,0,0,7.94-7.94Zm27.5,0a7.94,7.94,0,0,1,7.94-7.94h0a8,8,0,0,1,7.94,7.94h0a7.94,7.94,0,0,1-7.94,7.94h0a7.93,7.93,0,0,1-7.94-7.94Zm59.27,0a7.94,7.94,0,0,0-7.94-7.94h0a8,8,0,0,0-7.94,7.94h0a7.94,7.94,0,0,0,7.94,7.94h0a7.93,7.93,0,0,0,7.94-7.94Zm27.51,0a8,8,0,0,1,8-7.94h0a8,8,0,0,1,7.94,7.94h0a7.94,7.94,0,0,1-7.94,7.94h0a7.94,7.94,0,0,1-8-7.94Zm-201.06,43.39a8,8,0,0,0-7.94-7.94h0a7.94,7.94,0,0,0-7.94,7.94h0a7.93,7.93,0,0,0,7.94,7.94h0a7.94,7.94,0,0,0,7.94-7.94Zm27.51,0a7.94,7.94,0,0,1,7.94-7.94h0a8,8,0,0,1,7.94,7.94h0a7.94,7.94,0,0,1-7.94,7.94h0a7.93,7.93,0,0,1-7.94-7.94Zm59.27,0a8,8,0,0,0-7.94-7.94h0a8,8,0,0,0-8,7.94h0a7.94,7.94,0,0,0,8,7.94h0a7.94,7.94,0,0,0,7.94-7.94Zm27.5,0a7.94,7.94,0,0,1,7.94-7.94h0a8,8,0,0,1,7.94,7.94h0a7.94,7.94,0,0,1-7.94,7.94h0a7.93,7.93,0,0,1-7.94-7.94Zm59.27,0a7.94,7.94,0,0,0-7.94-7.94h0a8,8,0,0,0-7.94,7.94h0a7.94,7.94,0,0,0,7.94,7.94h0a7.93,7.93,0,0,0,7.94-7.94Z" transform="translate(-195.42 -204.83)"/><path class="cls-17" d="M1429.78,685.66c-12.36,20.29-32.1,51.77-44.83,91.9-7.74,24.38-10.66,64.49-12.11,81.22" transform="translate(-195.42 -204.83)"/><path class="cls-17" d="M1399.65,528.38c-14.38,33.83-37.59,127.55-15.35,231.74s95.26,239.23,129,293.73" transform="translate(-195.42 -204.83)"/><path class="cls-18" d="M1792.39,406.77c-72.9,38.32-156.81,114.72-189.65,148.13l-102.48,48.61c-19.24,14-59.22,39.23-65.27,28-7.55-14-21.07-47.35-8.73-78.86s31.7-37.47,52.49-71.74,45.92-65.48,58.3-67.66c9.91-1.74,37,21.59,49.26,33.47,1.27-4.91,3.37-17.18,1.63-27.09a170.52,170.52,0,0,0-7-25.56c4.84-6.38,19.69-21.57,40.44-31.34s65.31-30.18,85-39.16l21.52,28.12,12.49-37.92c12,.45,42.2.5,67.13-2.85,31.17-4.2,76.25-23.59,130.63-19.1,43.51,3.59,74.66,23.05,84.79,32.33C1976.44,335.76,1865.29,368.45,1792.39,406.77Z" transform="translate(-195.42 -204.83)"/><path class="cls-19" d="M1916.09,326.36c26.91-3.7,84.22-2.45,109.5-1.35-47.36,11.29-159.85,43.11-230.94,80.09S1646.8,512.71,1617.31,543.41c-38.27,19.48-112.74,52.71-104.51,29.83,10.3-28.61,70.13-87.6,81-98.43s29.5-6.46,39.62-7c8.09-.4,7.76-18.8,6.58-28,11-7.88,40.52-26.51,71.16-38s68.57-35.86,83.7-46.59l17.25,11a54.21,54.21,0,0,1,22.3-25.61C1850.63,331.47,1882.45,331,1916.09,326.36Z" transform="translate(-195.42 -204.83)"/><path class="cls-20" d="M1478.08,716.73c16.58-33.23,48-73.79,61.66-89.92,6.4-1.12,22.08-1.9,33.66,4a281.35,281.35,0,0,1,29.5,17.89l49.39-28.44-.42,44.56c5.36,2.36,30.2,12.5,86.74,34.21s93.53,57.19,105,72.21c2.34-18,5.4-61.26-1-90.45s-16.75-54.73-21.09-63.85l-30.38,5.33c-12.79,2.24-7.68-25-3.53-38.93-6.83-7.59-24.07-24.44-38.43-31.15-17.95-8.39-90.5-36.85-141.54-46s-68.94,20.33-77.6,36.69-33,37.1-62.84,45.63-59.26,28.52-72.81,35.84-13.65,25.47-21,68-11.89,44.93,7.74,62.9S1457.36,758.26,1478.08,716.73Z" transform="translate(-195.42 -204.83)"/><path class="cls-21" d="M1510.1,565.71c51-1.86,149.52,7.21,221.9,57.29,67.93,47,100.5,108.89,112,144.9,2.25-19.56,4.62-59.6-1.45-87.13-6.44-29.18-16.75-54.73-21.1-63.85l-30.37,5.33c-12.79,2.24-7.68-25-3.53-38.93-6.83-7.59-24.07-24.44-38.43-31.15-17.95-8.39-90.5-36.85-141.54-46s-68.94,20.33-77.6,36.69C1526.11,550.08,1519.2,558.18,1510.1,565.71Z" transform="translate(-195.42 -204.83)"/><path class="cls-22" d="M1478.08,716.72c16.58-33.23,48-73.79,61.66-89.91-90,22.38-131.89-9.81-145.44-2.49s-13.65,25.47-21,68-11.88,44.92,7.75,62.9S1457.36,758.26,1478.08,716.72Z" transform="translate(-195.42 -204.83)"/><path class="cls-17" d="M1457.09,634.73c-26.33,40.87-47.9,113.86-62.75,149.42s-21.4,65.83-22.82,76.51" transform="translate(-195.42 -204.83)"/><g class="cls-23"><path class="cls-24" d="M1303.48,515.6c-3.81-21.74,34.57-65.94,54.23-85.32l40.42,108.25a168.14,168.14,0,0,1-43.16,7.58C1332,546.84,1308.25,542.78,1303.48,515.6Z" transform="translate(-195.42 -204.83)"/></g><path class="cls-25" d="M1348,412.22c2.38,28.59,34.82,98.25,50.74,129.51,11.57-31.14,54.81-112.11,135.28-186.87s210.8-122.68,265.91-137.3c-19.17-6-68.82-16.59-114-11.29s-80.29,33.86-92.18,47.48c.1-8.8,0-28-1.1-34.41-1.4-8-15-10.54-47.48,1.75s-110,49-138.08,77c-22.44,22.39-14.24,81.59-7.34,108.39-6.27-4.39-20.56-13.85-27.63-16.57C1363.21,386.48,1345,376.49,1348,412.22Z" transform="translate(-195.42 -204.83)"/><path class="cls-26" d="M688.35,1451.15c19.44-5.19,125.81-13,176.56-16.2,31.32,88.55-73.41,282.55-73.41,282.55-79-54.5-131-69-222.5-93.5,7.56-21.06,35.12-103.52,54.56-130.74C647.85,1459.24,664.05,1457.63,688.35,1451.15Z" transform="translate(-195.42 -204.83)"/><path class="cls-27" d="M802.94,1439.28c23.26-1.76,45.53-3.28,62-4.33,31.32,88.55-73.41,282.55-73.41,282.55-24.58-17-46.54-30-67.9-40.76,10.25-13.87,20.14-40.88,23.13-104.27C750,1504.07,778.86,1460.09,802.94,1439.28Z" transform="translate(-195.42 -204.83)"/><path class="cls-28" d="M919.13,1451.28,1274,1349.77a3.23,3.23,0,0,0,2.35-3.12V1334a3.24,3.24,0,0,0-2.69-3.2l-354.51-61a3.16,3.16,0,0,0-1.53.1L581.39,1376.73a3.24,3.24,0,0,0,.33,6.26l335.87,68.35A3.09,3.09,0,0,0,919.13,1451.28Z" transform="translate(-195.42 -204.83)"/><path class="cls-29" d="M1555,1708.7c110.23-5,154.42-25.38,165.22-34l-4.86-89.09-72.89-137.68-150.65-68c-150.64-21.6-461.65-66.09-500.53-71.27-48.59-6.48-74.51,4.86-98.81,37.26s-32.4,77.75-53.46,173.32c-16.84,76.46-46.29,180.54-49,197.82,31,28,58,48.5,102,74.5,94.58,55.89,149.28,68.38,172.5,70,3.24-3.24,3.72-156.32,6.32-170.58,3.23-17.81-13-22.67,3.23-45.35,13-18.14,15.12-33.48,14.58-38.88C1205.26,1662.85,1410.8,1715.18,1555,1708.7Z" transform="translate(-195.42 -204.83)"/><path class="cls-29" d="M1555,1708.7c110.23-5,154.42-25.38,165.22-34l-4.86-89.09-72.89-137.68-150.65-68c-150.64-21.6-461.65-66.09-500.53-71.27-48.59-6.48-74.51,4.86-98.81,37.26s-32.4,77.75-53.46,173.32c-16.84,76.46-46.29,180.54-49,197.82,31,28,58,48.5,102,74.5,94.58,55.89,149.28,68.38,172.5,70,3.24-3.24-7.5-59.5,21.55-125.5,7.3-16.58-16.19-45.75,0-68.43,13-18.14,15.12-33.48,14.58-38.88C1217.26,1684.85,1410.8,1715.18,1555,1708.7Z" transform="translate(-195.42 -204.83)"/><path class="cls-30" d="M1720.19,1674.68c-10.8,8.64-55,29.07-165.22,34-144.17,6.48-337.71-23.85-454.34-80,.54,5.4-1.62,20.74-14.58,38.88-9.39,13.15-5.43,28.49-1.88,42.28,2.58,10,4.95,19.19,1.88,26.15-21.82,49.59-21.19,93.68-20.9,113.91.1,6.7.16,10.78-.65,11.59-18.77-1.31-58.14-9.73-122.53-42.46,2-3.86,4.94-8.91,8.43-14.91,17.27-29.79,48.1-83,48.1-129.13,0-43-2.38-71.59-10.48-94.27s14.58-40.49,40.5-47c10.64-2.67,15.82-13.53,21.49-25.4,8.12-17,17.24-36.16,44.92-36.16,22.24,0,56.82,14.52,99.78,32.56,47.8,20.07,106,44.5,169.12,58.15,95.89,20.74,235.41,8.64,293.19,0l56.69,30.78,2.84,14.17Z" transform="translate(-195.42 -204.83)"/><path class="cls-31" d="M986,1297.5l45-129.5,70.41-18.15,95.57,37.26-40.49,132.83Z" transform="translate(-195.42 -204.83)"/><path class="cls-31" d="M526.36,1392.83c7.78,19.44,47,41.58,64.8,53.45l-8.1-59.93-22.68-3.24a421.85,421.85,0,0,1-8.1-63.17c-1.29-27.22-13.5-26.46-19.43-22.68C528,1318.86,518.59,1373.39,526.36,1392.83Z" transform="translate(-195.42 -204.83)"/><path class="cls-32" d="M1430.24,693.06c-20.74-11.67-47.52-1.62-58.32,4.86l-139.3,116.63c-33.48,21.59-105.62,69-126.35,85.85-25.92,21.05-17.82,48.59-29.16,68s-14.58,25.92-14.58,64.79-9.71,59.94-27.53,85.86c-14.26,20.73-10.26,45.35-6.48,55.07,22.14,1.62,71,6.48,89.09,13s38.88,20,47,25.92L1150,1313.46l69.65,27.53,191.14,27.54c30.24,14.58,93.63,41.47,105.29,45.36,14.58,4.86,59.94,9.72,87.47,74.51s35.64,55.08,76.14,90.71c32.39,28.51,35.09,78.83,32.39,100.43,9.72-.54,31.43-4.86,40.5-17.82,11.34-16.19,17.81-35.63,17.81-59.93s-9.71-24.3,0-58.31-3.24-35.64-9.71-76.14-8.1-35.63,0-71.27,6.47-59.93-13-121.49c-15.55-49.24-18.36-179.26-17.82-238.12,8.64-4.86,26.89-16.52,30.78-24.29,4.86-9.72,4.86-25.92,1.62-42.12s-13-29.16-29.16-58.31S1694.27,787,1671.6,744.89s-61.56-51.83-110.15-47S1456.16,707.64,1430.24,693.06Z" transform="translate(-195.42 -204.83)"/><g class="cls-33"><path class="cls-34" d="M1215.5,929.5c-2.4-27.2-7.5-75.17-9.5-98,26-17,40.56-23.66,52.5-37,83-92.73,176-122,171-98-14,68-96,265.5-144.5,290S1218.5,963.5,1215.5,929.5Z" transform="translate(-195.42 -204.83)"/></g><path class="cls-35" d="M1147.5,1143.5c28.67-6.83,100.6-27.8,159-57s175-58.5,226-69.5" transform="translate(-195.42 -204.83)"/><path class="cls-36" d="M1143.5,1122c28.67-6.83,98.6-27.3,157-56.5s175-58.5,226-69.5" transform="translate(-195.42 -204.83)"/><path class="cls-37" d="M1519.33,853.42c-3.78,24.3-9.07,82.94,0,123.11s35.1,71.81,47,82.61" transform="translate(-195.42 -204.83)"/><path class="cls-37" d="M1493.41,821c-3.78,27-9.07,87.8,0,115s21.06,38.34,25.92,40.5" transform="translate(-195.42 -204.83)"/><g class="cls-38"><path class="cls-39" d="M1144.29,1120.69c3.74,37.1,11.65,70.74,20.29,92.34a216.87,216.87,0,0,0-21-13c-11.67-6.48-27.54-12.42-34-14.58-2.7-28.62-5.83-93.63,3.24-124.73s38.34-90.71,51.83-116.63c-3.24,14.58-12,42-16.19,69.66C1142,1055.08,1140.08,1079,1144.29,1120.69Z" transform="translate(-195.42 -204.83)"/></g><g class="cls-40"><path class="cls-41" d="M1517.71,1180.63c-13-81.64-5.4-170.08,0-204.1,1.08,3.78,5.51,16.2,14.58,35.63s25.38,38.34,32.4,45.36c56.69,72.89,169.61,211.13,187.76,240.94,22.66,37.23,11.25,94.31,8,110.54v0c-3.24,16.2-4.86,40.49,8.1,79.37s3.48,38.88,3.48,53.45-6.48,35.64,0,55.08c5.18,15.55,7,31.57-10.53,57.07s-50,25.5-50,25.5c0-4.86-1.35-44-9.13-64.75-9.72-25.92-22.67-32.4-55.07-58.32s-40.5-59.93-55.08-85.85-32.39-42.11-79.37-56.69c-37.58-11.67-102-41.58-129.59-55.08C1433.48,1333.43,1530.67,1262.27,1517.71,1180.63Z" transform="translate(-195.42 -204.83)"/></g><path class="cls-42" d="M1763.93,993.35c-3.24-22.68-29.7-22.14-38.88-22.68l16.2,58.31C1748.27,1024.12,1767.17,1016,1763.93,993.35Z" transform="translate(-195.42 -204.83)"/><path class="cls-43" d="M1640.82,986.25c37.58-16.85,82.89-16.74,95.85-14.58,9.18,33.48,30.13,114.69,40.5,171.7,13,71.28,24.3,172-13,181.71s-44,21.06-189.8,43.73-247.84-11.62-290-19.72c-33.69-6.47-224.61-32.93-315.87-45.35l81-68,81-16.2c20,10.26,64.14,31.42,81,34,21.06,3.24,181.42,25.92,265.66-9.72,67.38-28.5,118.78-44.27,136.06-48.59-.54-6.48-4.53-27.54-16.2-59.93s-26.45-66.42-32.39-79.38C1574.41,1039.7,1603.24,1003.1,1640.82,986.25Z" transform="translate(-195.42 -204.83)"/><path class="cls-44" d="M1133.81,1255.14l-46.13-4a25.94,25.94,0,0,0-18.74,5.85l-38.8,32.12" transform="translate(-195.42 -204.83)"/><path class="cls-44" d="M1148.39,1276.2a214.31,214.31,0,0,0-48.6,3.24c-20.73,3.89-36.72,11.34-42.12,14.58" transform="translate(-195.42 -204.83)"/><path class="cls-31" d="M1642.44,1190.35l-29.16,4.86-14.58-56.7Z" transform="translate(-195.42 -204.83)"/><path class="cls-31" d="M1664,1026.74c36.58-6.65,73-2.16,87.29,3.24L1736.5,971.5c-11.41-2.16-42.31-4.55-87.5,11s-75.94,56.22-84.5,73.5l11.5,26.5C1590.26,1069,1619.46,1034.84,1664,1026.74Z" transform="translate(-195.42 -204.83)"/><path class="cls-45" d="M907.13,1300.11l365.56,48.5a3.24,3.24,0,0,0,3.66-3.21v-4.72a3.23,3.23,0,0,0-2.63-3.18l-353-67.33a3.23,3.23,0,0,0-3.46,1.66l-12.55,23.55A3.23,3.23,0,0,0,907.13,1300.11Z" transform="translate(-195.42 -204.83)"/><path class="cls-46" d="M581.88,1381.45l321.85-79.36a25,25,0,0,0,16.33-35.43L738.19,904.4a35.63,35.63,0,0,0-44-17.52L393.71,995.65a25.93,25.93,0,0,0-14.22,36.24l173.14,336.26A25.93,25.93,0,0,0,581.88,1381.45Z" transform="translate(-195.42 -204.83)"/><path class="cls-43" d="M665.67,1454.38c15.55-2.59,133.91-12.42,192.76-17.82l6.48-30.77-121.48-8.1c-.54-.54-4.86-2.92-17.82-8.1s-37.8-4.32-48.6-3.24c-3.78-12.42-13.93-36.93-24.3-35.64s-9.72,30.78-8.1,45.36c-3.24-20-13.28-59.61-27.53-58.32-11.73,1.07-11.1,32.2-8.41,55.83-3.25-22.33-8.45-53.42-12.65-63.93-6.48-16.19-21.06-22.67-29.16-17.81-6.48,3.88-3.24,25.37-1.62,34,2.7,28.08,10.37,86.5,19.44,95.57,11.34,11.34,14.58,14.58,25.92,13s13-3.24,19.43,0S646.23,1457.62,665.67,1454.38Z" transform="translate(-195.42 -204.83)"/><path class="cls-44" d="M621.94,1452.77,607.36,1375" transform="translate(-195.42 -204.83)"/><path class="cls-44" d="M657.57,1452.77,643,1391.21" transform="translate(-195.42 -204.83)"/><path class="cls-31" d="M686.73,1420.37l-9.72-34c3.24-1.08,17.49-2.59,35.64,0s27,8.64,30.77,11.34Z" transform="translate(-195.42 -204.83)"/><ellipse class="cls-47" cx="633.27" cy="1149.85" rx="21.06" ry="40.5" transform="translate(-747.9 381.83) rotate(-35.75)"/><path class="cls-48" d="M1067.59,574.7c-23.76,12-44-.57-56.09-4.7l26,63c-9.64.28-34.78-7.15-52-22.5-17.5-15.6-16.49-37.28-9.77-43.85C971.4,563.77,933,544.1,925,521.5c-15.47-43.5,21-64.88,49.1-66.21s61.6-11.1,112-44.15c40.33-26.44,73.72.44,85.38,17.18,10-2.89,29.24-3.71,46.91,1.13,30.59,8.4,82.09,32.55,70.09,77.05-5.51,37.47,24.5,42,29.4,71.94,3.12,19-17.87,42.81-21.28,53.06l-99.33-31.27c4.5,12.08,10.64,37.32-.86,41.66s-24-28.85-28.76-46c-6.51.69-22,.86-31.9-3.92s-16.79-37.4-19-53.11C1110.28,545.81,1091.35,562.69,1067.59,574.7Z" transform="translate(-195.42 -204.83)"/><path class="cls-49" d="M1013,586.5l-37.5-20c-5.33,4.83-12.2,19.2,3,38s44,26.83,56.5,28.5Z" transform="translate(-195.42 -204.83)"/><path class="cls-43" d="M1049,513.46c-19,11.84-36.53,18.75-42.94,20.73v42.94c0,13.32,0,26.65,10.36,38.49s19.25,13.33,23.69,37-11.28,64.82,5,66.3c10.6,1,21.26-3.89,27.53-7.85a4.34,4.34,0,0,1,6,1.12c4.78,7.31,12.89,20,19.81,31.9,10.37,17.77,14.25,34.38,30.54,38.82,13,3.55,44.91-6.42,59.22-11.84l35.54,51.82c3.81,19.59,6,42,7.31,56.59,2.18,23.5,7.5,118.5,50.5,68,45.61-53.57,98.15-209,109.5-246-7.9-1-29-6.81-50.34-22.21s-33.56-46.89-37-60.71l-50.34-8.88c3-4,9.18-17.18,10.37-38.5,1.48-26.65-22.21-47.38-40-37-26.24,15.3-26.65,48.86-35.53,57.74s-19.25-13.33-26.66-31.09-19.24-8.89-32.57-37S1072.67,498.65,1049,513.46Z" transform="translate(-195.42 -204.83)"/><g class="cls-50"><path class="cls-51" d="M1145.77,741.83c4.57-2.18,9-7.12,10.57-9.32,4.47-1.48,7,6,3,14s-17,4.81-18.89,2.93S1140.05,744.56,1145.77,741.83Z" transform="translate(-195.42 -204.83)"/></g><path class="cls-52" d="M1069.5,697.5l15.5-3" transform="translate(-195.42 -204.83)"/><path class="cls-53" d="M1056.33,575.79c-12,5-14.55,14.7-14.19,21,0,.71,1.93,1,2.38.41,2.3-2.74,7.26-6.53,16.89-10.54,11.32-4.71,29.87-8.52,43.32-10.76a1.48,1.48,0,0,0,0-2.94C1089.45,571.47,1068,570.93,1056.33,575.79Z" transform="translate(-195.42 -204.83)"/><path class="cls-54" d="M1098.5,606.77c-9.81-1.55-30,.93-32.53,23.23" transform="translate(-195.42 -204.83)"/><path class="cls-55" d="M1098.06,712.18c33.44,57.82,67.38-15.17,58.3-48Z" transform="translate(-195.42 -204.83)"/><path class="cls-56" d="M1141.56,676.39l-39.75,32.7C1119.42,719.19,1135,699.11,1141.56,676.39Z" transform="translate(-195.42 -204.83)"/><path class="cls-57" d="M1118.24,732.69c18.51,6.7,34.18-19,38.46-43.54C1139.08,697.61,1120.86,716.65,1118.24,732.69Z" transform="translate(-195.42 -204.83)"/><g class="cls-58"><path class="cls-59" d="M1213.85,586c-7-12.93,6-47.94,27.61-35.7,12,6.78,12,20,8.88,28-1.77,4.83-6.83,16.51-12.94,24.65-7.64,10.16-17.22,19-26.19,18.64s-6.79-11.42,1.61-15.55S1220.83,598.88,1213.85,586Z" transform="translate(-195.42 -204.83)"/></g><path class="cls-60" d="M1006,563.8V534.19c4.93-2,17.17-7.11,26.65-11.85,11.84-5.92,19.25-16.28,48.86-20.73,23.69-3.55,38.5,9.87,44.42,16.29-12.83-2-42.64-2.37-59.23,11.84S1019.36,558.37,1006,563.8Z" transform="translate(-195.42 -204.83)"/><path class="cls-61" d="M1240,692.61c-4.74,15.4-37,58.73-51.82,78.48l35.53,51.82c8.88-17.28,27.54-60.12,31.09-93.28s-5.43-66.14-10.36-78.48C1244.91,658.56,1244.72,677.21,1240,692.61Z" transform="translate(-195.42 -204.83)"/><g class="cls-62"><path class="cls-63" d="M1335.42,1143.83c14.14-33,56.75-180,76.28-249.47-10.18,73.34-35.78,230.6-56.68,272.86s-42.61,42.1-50.85,36.73C1308.69,1197.65,1321.27,1176.8,1335.42,1143.83Z" transform="translate(-195.42 -204.83)"/></g></svg>