<svg width="108" height="108" viewBox="0 0 108 108" fill="none" xmlns="http://www.w3.org/2000/svg">
<g clip-path="url(#clip0_1_2)">
<circle cx="54" cy="54" r="54" fill="white"/>
<g clip-path="url(#clip1_1_2)">
<path d="M36.7396 27.6875H72.2605C77.6459 27.6875 82 32.0416 82 37.4271V71.573C82 76.9584 77.6459 81.3126 72.2604 81.3126H36.7396C31.3541 81.3125 27 76.9584 27 71.5729V37.4271C27 32.0416 31.3541 27.6875 36.7396 27.6875Z" fill="#001834"/>
<path d="M39.375 65.2936V41.7124C39.375 41.552 39.4438 41.4603 39.6041 41.4603C39.9938 41.4603 40.3604 41.4603 40.8875 41.4374C41.4375 41.4145 42.0104 41.4145 42.6291 41.3915C43.2479 41.3685 43.9125 41.3686 44.6229 41.3456C45.3333 41.3228 46.0208 41.3228 46.7083 41.3228C48.5874 41.3228 50.1458 41.5519 51.4291 42.0331C52.575 42.4228 53.6291 43.0644 54.5 43.9123C55.2334 44.6456 55.8063 45.5394 56.1729 46.5248C56.5166 47.4873 56.7 48.4726 56.7 49.5039C56.7 51.4748 56.2416 53.1018 55.325 54.3851C54.4084 55.6685 53.125 56.631 51.6354 57.181C50.077 57.7539 48.3583 57.9601 46.4791 57.9601C45.9291 57.9601 45.5625 57.9601 45.3333 57.9373C45.1041 57.9144 44.7833 57.9144 44.3479 57.9144V65.2706C44.3708 65.431 44.2563 65.5685 44.0958 65.5915C44.0729 65.5915 44.0499 65.5915 44.0041 65.5915H39.65C39.4666 65.5915 39.375 65.4999 39.375 65.2936ZM44.3709 45.8832V53.5832C44.6917 53.6061 44.9896 53.6291 45.2646 53.6291H46.4792C48.0617 53.6291 49.8892 53.2572 50.9938 52.0021C51.9443 50.9219 51.947 48.7797 51.1771 47.6021C50.2632 46.2042 48.4355 45.7992 46.8688 45.8375C46.2729 45.8375 45.7459 45.8375 45.3104 45.8604C44.8521 45.8374 44.5313 45.8603 44.3709 45.8832Z" fill="#00A9FF"/>
<path d="M71 52.1855C70.3125 51.8188 69.5792 51.5667 68.8 51.4063C67.9521 51.223 67.1042 51.1085 66.2334 51.1085C65.775 51.0856 65.2938 51.1543 64.8584 51.2688C64.5605 51.3376 64.3084 51.498 64.148 51.7272C64.0334 51.9106 63.9646 52.1397 63.9646 52.346C63.9646 52.5522 64.0563 52.7585 64.1938 52.9418C64.4 53.194 64.675 53.4002 64.9729 53.5606C65.5 53.8356 66.05 54.0877 66.6 54.3168C67.8375 54.7293 69.0292 55.3022 70.1292 55.9897C70.8854 56.471 71.5042 57.1126 71.9395 57.8918C72.3062 58.6252 72.4895 59.4272 72.4667 60.2522C72.4895 61.3293 72.1688 62.4063 71.5729 63.3001C70.9313 64.2167 70.0375 64.9272 69.0063 65.3397C67.8834 65.821 66.5084 66.0731 64.8584 66.0731C63.8043 66.0731 62.773 65.9815 61.7418 65.7752C60.9396 65.6377 60.1376 65.3856 59.4043 65.0418C59.2439 64.9502 59.1293 64.7897 59.1521 64.6065V60.619C59.1521 60.5502 59.175 60.4586 59.2438 60.4127C59.3125 60.3668 59.3813 60.3898 59.45 60.4356C60.3438 60.9627 61.2834 61.3293 62.2917 61.5585C63.1625 61.7876 64.0792 61.9022 64.9958 61.9022C65.8667 61.9022 66.4854 61.7876 66.8979 61.5813C67.2645 61.421 67.5167 61.0313 67.5167 60.6188C67.5167 60.298 67.3333 60.0001 66.9667 59.7022C66.6 59.4043 65.8438 59.0606 64.7208 58.6251C63.552 58.2126 62.4749 57.6626 61.4667 56.9751C60.7563 56.471 60.1604 55.8063 59.725 55.0272C59.3584 54.2938 59.175 53.4918 59.1979 52.6897C59.1979 51.7043 59.4729 50.7647 59.977 49.9168C60.5499 49.0002 61.3979 48.2668 62.3833 47.8085C63.4604 47.2585 64.8124 47.0063 66.4395 47.0063C67.3792 47.0063 68.3417 47.0751 69.2812 47.2126C69.9687 47.3042 70.6333 47.4876 71.252 47.7397C71.3437 47.7626 71.4354 47.8543 71.4812 47.946C71.504 48.0376 71.527 48.1293 71.527 48.221V51.9563C71.527 52.048 71.4812 52.1397 71.4124 52.1855C71.2063 52.2313 71.0917 52.2313 71 52.1855Z" fill="#00A9FF"/>
</g>
</g>
<defs>
<clipPath id="clip0_1_2">
<rect width="1920" height="7242" fill="white" transform="translate(-553 -4250)"/>
</clipPath>
<clipPath id="clip1_1_2">
<rect width="55" height="55" fill="white" transform="translate(27 27)"/>
</clipPath>
</defs>
</svg>
