<svg width="108" height="108" viewBox="0 0 108 108" fill="none" xmlns="http://www.w3.org/2000/svg">
<g clip-path="url(#clip0_1_2)">
<circle cx="54" cy="54" r="54" fill="white"/>
<path d="M67.3728 51.3344C67.3168 50.0708 67.2215 48.8303 67.0815 47.6246C66.7007 44.1466 66.0007 40.941 65.0376 38.1296C64.7464 37.2427 64.4159 36.3963 64.0687 35.5964C61.6215 29.962 58.0376 26.4492 54 26.4492C49.9456 26.4492 46.3504 29.933 43.9087 35.5906C43.5559 36.3906 43.2312 37.2369 42.9344 38.1238C41.9823 40.9352 41.2823 44.1523 40.9072 47.6478C40.7784 48.8013 40.6887 49.9896 40.6328 51.2011C40.5936 52.0822 40.5712 52.9807 40.5712 53.8908C40.5712 54.7545 40.5879 55.6124 40.6272 56.4529C40.6776 57.7108 40.7728 58.9397 40.9072 60.1338C41.2823 63.6235 41.9712 66.8464 42.9176 69.6694C43.2087 70.5563 43.5279 71.3968 43.8751 72.2026C46.3168 77.9471 49.9287 81.5179 54 81.5179C58.0543 81.5179 61.6551 77.9239 64.0968 72.1968C64.444 71.3968 64.7631 70.5505 65.06 69.6636C66.012 66.8348 66.7064 63.6176 67.0872 60.1396C67.2159 58.9803 67.3112 57.7978 67.3672 56.5863C67.4064 55.6994 67.4287 54.8009 67.4287 53.8908C67.4287 53.0271 67.412 52.175 67.3728 51.3344ZM64.1472 62.4062C63.7607 64.7886 63.2231 67.0087 62.5512 69.0028C62.26 69.8839 61.9408 70.7186 61.5992 71.5069C59.6392 75.9994 56.9512 78.8108 54 78.8108C51.06 78.8108 48.3831 75.9762 46.4287 71.4954C46.0872 70.7128 45.7623 69.8781 45.4712 68.997C44.7992 67.0087 44.2559 64.7886 43.8695 62.4177C43.6736 61.2526 43.5223 60.0469 43.4104 58.8122C43.2648 57.2123 43.1864 55.566 43.1864 53.8908C43.1864 52.1866 43.2648 50.5171 43.4215 48.8998C43.5279 47.6883 43.6792 46.5058 43.8751 45.3638C44.2615 42.993 44.8104 40.7786 45.4936 38.7962C45.7904 37.9151 46.1151 37.0804 46.4623 36.2978C48.4168 31.9097 51.0823 29.1563 54 29.1563C56.9343 29.1563 59.6056 31.8923 61.5656 36.292C61.9128 37.0746 62.2376 37.9093 62.5343 38.7904C63.212 40.7729 63.7551 42.9872 64.1415 45.3755C64.332 46.5406 64.4831 47.7463 64.5951 48.981C64.7407 50.5693 64.8136 52.2098 64.8136 53.8908C64.8136 55.595 64.7351 57.2645 64.584 58.8818C64.4776 60.0875 64.332 61.2642 64.1472 62.4062Z" fill="url(#paint0_linear_1_2)"/>
<path d="M78.248 37.6426C76.6744 35.8398 73.8856 34.7559 70.3968 34.7559C68.4704 34.7559 66.3368 35.0457 64.0688 35.5964C63.2512 35.7935 62.4168 36.0253 61.5656 36.292C59.1296 37.0456 56.5816 38.0658 54 39.3179C53.0144 39.799 52.0288 40.3091 51.0376 40.8482C49.4024 41.7409 47.7672 42.7263 46.1488 43.7813C45.3704 44.2972 44.6144 44.8247 43.8752 45.3638C42.8448 46.1116 41.8536 46.8709 40.9072 47.6477C39.1936 49.0505 37.62 50.4881 36.2144 51.9373C35.5816 52.5865 34.9824 53.2415 34.4168 53.8908C31.1688 57.6412 29.0744 61.3627 28.5312 64.5451C28.184 66.7131 28.5312 68.7013 29.752 70.1447C31.3256 71.9475 34.1144 73.0314 37.6032 73.0314C39.5128 73.0314 41.6296 72.7474 43.8752 72.2025C44.7096 72.0055 45.5608 71.7678 46.4288 71.4953C48.8648 70.7417 51.4184 69.7216 54 68.4694C54.9856 67.9941 55.9712 67.484 56.9624 66.9391C58.5976 66.0464 60.2328 65.0668 61.8512 64.006C62.6352 63.4843 63.4024 62.951 64.1472 62.4061C65.1664 61.6641 66.152 60.9106 67.0872 60.1396C68.8008 58.7368 70.3744 57.2934 71.7856 55.8443C72.4296 55.1834 73.04 54.5168 73.6112 53.856C76.848 50.1229 78.9256 46.4188 79.4688 43.2422C79.816 41.0742 79.4688 39.086 78.248 37.6426ZM76.848 42.877C76.5064 45.5493 74.72 48.7433 71.9088 52.0184C71.3488 52.6734 70.744 53.3343 70.1 53.9893C69.2488 54.8588 68.336 55.7283 67.3672 56.5862C66.4824 57.3572 65.5584 58.1282 64.584 58.8817C63.2792 59.9019 61.896 60.8874 60.4512 61.838C58.3288 63.2234 56.156 64.4697 54 65.5479C53.0088 66.0464 52.0176 66.516 51.0376 66.9391C49.1392 67.7681 47.2688 68.4636 45.4712 68.997C44.6032 69.2578 43.7464 69.4839 42.9176 69.6694C41.0024 70.0983 39.2104 70.3244 37.6032 70.3244C34.8144 70.3244 32.8936 69.5998 31.8464 68.3361C31.152 67.4319 30.9784 66.3537 31.152 64.9045C31.4936 62.2264 33.2912 59.015 36.1136 55.7399C36.668 55.0965 37.2672 54.4472 37.9 53.798C38.7512 52.9285 39.664 52.059 40.6328 51.2011C41.5176 50.4243 42.4472 49.6534 43.4216 48.8998C44.7264 47.8854 46.104 46.8941 47.5488 45.9493C49.6712 44.5639 51.844 43.3176 54 42.2336C54.9912 41.7351 55.9824 41.2713 56.9624 40.8482C58.8664 40.0192 60.7368 39.3237 62.5344 38.7903C63.3856 38.5295 64.2256 38.3092 65.0376 38.1295C66.9696 37.6948 68.7728 37.4629 70.3968 37.4629C73.1856 37.4629 75.1064 38.1875 76.1536 39.4512C76.848 40.3497 77.0216 41.4336 76.848 42.877Z" fill="url(#paint1_linear_1_2)"/>
<path d="M79.4688 64.5451C79.0152 61.3511 76.9095 57.618 73.6112 53.856C73.0792 53.2415 72.508 52.6271 71.9088 52.0184C70.464 50.5345 68.8456 49.0563 67.0816 47.6245C66.1408 46.8594 65.1608 46.1058 64.1416 45.3754C63.3968 44.8305 62.6352 44.303 61.8512 43.7813C60.2328 42.7263 58.5976 41.7409 56.9624 40.8482C55.9712 40.3091 54.9856 39.799 54 39.3179C51.4295 38.0716 48.8872 37.0513 46.4624 36.2978C45.5944 36.0253 44.7431 35.7935 43.9088 35.5906C41.652 35.0457 39.524 34.7559 37.6031 34.7559C34.1144 34.7559 31.3256 35.8398 29.752 37.6426C28.7104 39.086 28.184 41.0742 28.5312 43.2422C29.0744 46.4246 31.1688 50.1461 34.4168 53.8908C34.9488 54.5052 35.52 55.1254 36.1136 55.7399C37.5472 57.2239 39.1544 58.702 40.9072 60.1338C41.8536 60.9106 42.8392 61.6699 43.8695 62.4177C44.6088 62.9568 45.3704 63.4843 46.1488 64.006C47.7672 65.0668 49.4024 66.0464 51.0376 66.9391C52.0288 67.484 53.0144 67.9941 54 68.4694C56.5928 69.7273 59.1576 70.7533 61.5992 71.5069C62.4504 71.7736 63.2848 71.9997 64.0968 72.1967C66.3536 72.7416 68.4759 73.0314 70.3968 73.0314C73.8856 73.0314 76.6744 71.9475 78.248 70.1447C79.2895 68.7013 79.8159 66.7131 79.4688 64.5451ZM76.1536 68.3361C75.6272 68.968 74.888 69.4665 73.9304 69.8027C72.9672 70.1447 71.7912 70.3244 70.3968 70.3244C68.784 70.3244 66.9808 70.0983 65.06 69.6636C64.2424 69.4839 63.408 69.2636 62.5512 69.0027C60.748 68.4694 58.872 67.7738 56.9624 66.9391C55.9824 66.516 54.9912 66.0464 54 65.5479C51.844 64.4697 49.6712 63.2234 47.5488 61.838C46.104 60.87 44.7208 59.8556 43.4104 58.8122C42.4416 58.0412 41.512 57.247 40.6272 56.4529C39.6584 55.5718 38.74 54.6849 37.9 53.798C37.3008 53.1778 36.7352 52.5575 36.2144 51.9373C33.4031 48.6505 31.5831 45.4565 31.152 42.877C30.9784 41.4336 31.152 40.3497 31.8464 39.4512C32.8936 38.1875 34.8144 37.4629 37.6031 37.4629C39.2159 37.4629 41.0136 37.689 42.9344 38.1237C43.7631 38.3092 44.62 38.5353 45.4936 38.7961C47.28 39.3294 49.1448 40.0192 51.0376 40.8482C52.0176 41.2713 53.0088 41.7351 54 42.2336C56.1559 43.3176 58.3288 44.5639 60.4512 45.9493C61.896 46.9173 63.2848 47.9317 64.5952 48.9809C65.564 49.7519 66.488 50.5403 67.3728 51.3344C68.3416 52.2155 69.26 53.1024 70.1 53.9893C70.6992 54.6096 71.2592 55.2298 71.7856 55.8443C74.5968 59.131 76.4168 62.325 76.848 64.9045C77.0216 66.3537 76.848 67.4319 76.1536 68.3361Z" fill="url(#paint2_linear_1_2)"/>
<path d="M60.6305 53.8907C60.6305 57.502 57.6624 60.5743 54 60.5743C50.3377 60.5743 47.3696 57.502 47.3696 53.8907C47.3696 50.2793 50.3377 47.2129 54 47.2129C57.6624 47.2129 60.6305 50.2793 60.6305 53.8907Z" fill="url(#paint3_linear_1_2)"/>
</g>
<defs>
<linearGradient id="paint0_linear_1_2" x1="25.9725" y1="22.1869" x2="79.4487" y2="78.8021" gradientUnits="userSpaceOnUse">
<stop stop-color="#97E0FF"/>
<stop offset="1" stop-color="#1075FF"/>
</linearGradient>
<linearGradient id="paint1_linear_1_2" x1="26.0146" y1="22.1474" x2="79.4908" y2="78.7626" gradientUnits="userSpaceOnUse">
<stop stop-color="#97E0FF"/>
<stop offset="1" stop-color="#1075FF"/>
</linearGradient>
<linearGradient id="paint2_linear_1_2" x1="26.0319" y1="22.1312" x2="79.5081" y2="78.7464" gradientUnits="userSpaceOnUse">
<stop stop-color="#97E0FF"/>
<stop offset="1" stop-color="#1075FF"/>
</linearGradient>
<linearGradient id="paint3_linear_1_2" x1="26.0152" y1="22.1468" x2="79.4914" y2="78.7619" gradientUnits="userSpaceOnUse">
<stop stop-color="#97E0FF"/>
<stop offset="1" stop-color="#1075FF"/>
</linearGradient>
<clipPath id="clip0_1_2">
<rect width="1920" height="7242" fill="white" transform="translate(-1264 -4510)"/>
</clipPath>
</defs>
</svg>
